<svg xmlns="http://www.w3.org/2000/svg" width="24" height="24" viewBox="0 0 24 24" fill="none">
  <path fill-rule="evenodd" clip-rule="evenodd" d="M12.0811 6.1279C12.2049 6.04452 12.3508 5.99999 12.5 6C12.6493 5.99999 12.7952 6.04452 12.919 6.1279C13.0428 6.21127 13.1389 6.32969 13.195 6.468L16.445 14.468C16.4821 14.5593 16.5008 14.6569 16.5 14.7554C16.4993 14.8539 16.4792 14.9513 16.4409 15.042C16.4025 15.1328 16.3467 15.215 16.2765 15.2842C16.2064 15.3533 16.1233 15.408 16.032 15.445C15.9408 15.482 15.8431 15.5007 15.7446 15.5C15.6461 15.4993 15.5487 15.4792 15.458 15.4408C15.2748 15.3634 15.1298 15.2163 15.055 15.032L14.23 13H10.77L9.94503 15.032C9.908 15.1233 9.85335 15.2063 9.78421 15.2765C9.71507 15.3466 9.63279 15.4025 9.54207 15.4408C9.45135 15.4792 9.35396 15.4993 9.25546 15.5C9.15697 15.5007 9.0593 15.482 8.96803 15.445C8.87676 15.408 8.79368 15.3533 8.72353 15.2842C8.65339 15.215 8.59754 15.1328 8.55919 15.042C8.52084 14.9513 8.50073 14.8539 8.50002 14.7554C8.49931 14.6569 8.518 14.5593 8.55503 14.468L11.805 6.468C11.8612 6.32969 11.9573 6.21127 12.0811 6.1279ZM12.5 8.743L11.38 11.5H13.62L12.5 8.743Z" fill="black"/>
  <path fill-rule="evenodd" clip-rule="evenodd" d="M4.73223 2.73223C4.26339 3.20107 4 3.83696 4 4.5V19.5C4 20.163 4.26339 20.7989 4.73223 21.2678C5.20107 21.7366 5.83696 22 6.5 22H19.75C19.9489 22 20.1397 21.921 20.2803 21.7803C20.421 21.6397 20.5 21.4489 20.5 21.25C20.5 21.0511 20.421 20.8603 20.2803 20.7197C20.1397 20.579 19.9489 20.5 19.75 20.5H6.5C6.23478 20.5 5.98043 20.3946 5.79289 20.2071C5.60536 20.0196 5.5 19.7652 5.5 19.5H19.75C19.9489 19.5 20.1397 19.421 20.2803 19.2803C20.421 19.1397 20.5 18.9489 20.5 18.75V4.5C20.5 4.1717 20.4353 3.84661 20.3097 3.54329C20.1841 3.23998 19.9999 2.96438 19.7678 2.73223C19.5356 2.50009 19.26 2.31594 18.9567 2.1903C18.6534 2.06466 18.3283 2 18 2H6.5C5.83696 2 5.20107 2.26339 4.73223 2.73223ZM19 18H5.5V4.5C5.5 4.23478 5.60536 3.98043 5.79289 3.79289C5.98043 3.60536 6.23478 3.5 6.5 3.5H18C18.2652 3.5 18.5196 3.60536 18.7071 3.79289C18.8946 3.98043 19 4.23478 19 4.5V18Z" fill="black"/>
</svg>
