<svg width="24" height="24" viewBox="0 0 24 24" fill="none" xmlns="http://www.w3.org/2000/svg">
<path fill-rule="evenodd" clip-rule="evenodd" d="M4 5.5H20C20.8284 5.5 21.5 6.17157 21.5 7V17C21.5 17.8284 20.8284 18.5 20 18.5H4C3.17157 18.5 2.5 17.8284 2.5 17V7C2.5 6.17157 3.17157 5.5 4 5.5ZM1 7C1 5.34315 2.34315 4 4 4H20C21.6569 4 23 5.34315 23 7V17C23 18.6569 21.6569 20 20 20H4C2.34315 20 1 18.6569 1 17V7ZM7.50476 15.3778C7.18709 15.3778 6.90508 15.3129 6.65873 15.1833C6.53101 15.1108 6.41431 15.0254 6.30865 14.9272V14.9499C6.27623 15.099 6.20816 15.2092 6.10443 15.2805C6.0007 15.3518 5.83539 15.3875 5.60849 15.3875C5.3751 15.3875 5.20654 15.3518 5.10281 15.2805C4.99909 15.2092 4.93426 15.1185 4.90832 15.0082C4.88887 14.8915 4.87915 14.7716 4.87915 14.6484V9.05687C4.87915 8.92073 4.89212 8.79755 4.91805 8.68734C4.94398 8.57713 5.00557 8.48961 5.10281 8.42478C5.20654 8.35347 5.37834 8.31781 5.61821 8.31781C5.8516 8.31781 6.01691 8.35347 6.11416 8.42478C6.2114 8.49609 6.26975 8.5901 6.2892 8.70679C6.30865 8.817 6.31513 8.93369 6.30865 9.05687V10.9833C6.41731 10.8833 6.53725 10.7987 6.66845 10.7295C6.90832 10.5998 7.18709 10.535 7.50476 10.535C7.79001 10.535 8.06553 10.5998 8.33133 10.7295C8.60362 10.8591 8.84349 11.0374 9.05095 11.2643C9.2584 11.4847 9.42047 11.7408 9.53717 12.0326C9.66034 12.3178 9.72193 12.6193 9.72193 12.9369C9.72193 13.2676 9.66034 13.582 9.53717 13.8802C9.42047 14.1719 9.2584 14.4313 9.05095 14.6582C8.84349 14.8851 8.60686 15.0633 8.34106 15.193C8.07526 15.3162 7.79649 15.3778 7.50476 15.3778ZM7.30054 13.9385C7.48206 13.9385 7.64414 13.8964 7.78676 13.8121C7.92939 13.7214 8.04284 13.6014 8.12712 13.4523C8.21788 13.3032 8.26326 13.1379 8.26326 12.9564C8.26326 12.7684 8.22112 12.6031 8.13685 12.4604C8.05257 12.3113 7.93911 12.1946 7.79649 12.1104C7.65386 12.0261 7.49179 11.9839 7.31027 11.9839C7.13523 11.9839 6.97315 12.0261 6.82404 12.1104C6.68142 12.1946 6.56797 12.3113 6.48369 12.4604C6.40589 12.6031 6.36699 12.7684 6.36699 12.9564C6.36699 13.1379 6.40913 13.3032 6.49341 13.4523C6.57769 13.6014 6.69114 13.7214 6.83377 13.8121C6.97639 13.8964 7.13198 13.9385 7.30054 13.9385ZM13.0076 15.3875C12.677 15.3875 12.3917 15.3518 12.1518 15.2805C11.9184 15.2092 11.724 15.099 11.5684 14.9499C11.4128 14.8008 11.2961 14.6128 11.2183 14.3859C11.147 14.1525 11.1113 13.877 11.1113 13.5593V12.0034H10.771C10.583 11.9969 10.4501 11.9418 10.3723 11.8381C10.3009 11.7279 10.2653 11.5463 10.2653 11.2935C10.2653 11.0601 10.3107 10.8883 10.4014 10.7781C10.4922 10.6614 10.6283 10.6031 10.8099 10.6031H11.1113V9.61116C11.1113 9.4815 11.121 9.36481 11.1405 9.26108C11.1664 9.15736 11.2312 9.07308 11.335 9.00825C11.4387 8.93693 11.6073 8.90128 11.8406 8.90128C12.074 8.90128 12.2426 8.93693 12.3463 9.00825C12.45 9.07956 12.5116 9.17032 12.5311 9.28053C12.557 9.39074 12.57 9.51068 12.57 9.64034V10.583L13.2215 10.5642C13.3447 10.5642 13.4614 10.5771 13.5716 10.6031C13.6818 10.6225 13.7726 10.6841 13.8439 10.7878C13.9152 10.8916 13.9509 11.0634 13.9509 11.3032C13.9509 11.5236 13.9152 11.6857 13.8439 11.7894C13.7791 11.8932 13.6915 11.9612 13.5813 11.9937C13.4711 12.0196 13.3512 12.0326 13.2215 12.0326L12.57 12.0176V13.5009C12.57 13.6047 12.5765 13.6922 12.5894 13.7635C12.6089 13.8283 12.6348 13.877 12.6672 13.9094C12.6996 13.9418 12.745 13.9645 12.8034 13.9774C12.8617 13.9904 12.933 13.9969 13.0173 13.9969C13.1599 13.9969 13.2864 14.0099 13.3966 14.0358C13.5068 14.0617 13.5911 14.1201 13.6494 14.2108C13.7142 14.3016 13.7466 14.4539 13.7466 14.6679C13.7466 14.9013 13.711 15.0698 13.6397 15.1736C13.5684 15.2773 13.4744 15.3389 13.3577 15.3583C13.2475 15.3778 13.1308 15.3875 13.0076 15.3875ZM15.0121 15.2805C15.1158 15.3454 15.2876 15.3778 15.5275 15.3778C15.7674 15.3778 15.9359 15.3454 16.0332 15.2805C16.1369 15.2157 16.1985 15.1282 16.2179 15.018C16.2439 14.9013 16.2568 14.7813 16.2568 14.6582V12.8883C16.2568 12.7003 16.2925 12.5382 16.3638 12.4021C16.4416 12.2659 16.5486 12.159 16.6847 12.0812C16.8209 12.0034 16.9829 11.9645 17.1709 11.9645C17.359 11.9645 17.5178 12.0034 17.6474 12.0812C17.7771 12.1525 17.8743 12.2562 17.9392 12.3924C18.004 12.5285 18.0364 12.6938 18.0364 12.8883V14.6484C18.0364 14.7716 18.0494 14.8915 18.0753 15.0082C18.1013 15.1185 18.1628 15.2092 18.2601 15.2805C18.3638 15.3454 18.5389 15.3778 18.7852 15.3778C19.0251 15.3778 19.1936 15.3454 19.2909 15.2805C19.3946 15.2157 19.4562 15.1282 19.4756 15.018C19.5016 14.9013 19.5145 14.7813 19.5145 14.6582V12.8883C19.5145 12.5447 19.4692 12.2303 19.3784 11.945C19.2941 11.6533 19.1677 11.4005 18.9991 11.1865C18.8306 10.9726 18.6231 10.8105 18.3768 10.7003C18.1369 10.5836 17.8614 10.5253 17.5502 10.5253C17.4011 10.5253 17.2487 10.548 17.0932 10.5933C16.944 10.6387 16.8014 10.7035 16.6653 10.7878C16.5356 10.8656 16.4254 10.9564 16.3346 11.0601C16.2923 11.109 16.259 11.1578 16.2346 11.2067L16.2471 11.1671C16.2342 11.1411 16.2277 11.0958 16.2277 11.0309C16.2277 10.9596 16.2115 10.8851 16.1791 10.8073C16.1531 10.7295 16.0915 10.6646 15.9943 10.6128C15.897 10.5544 15.7447 10.5253 15.5372 10.5253C15.2974 10.5253 15.1256 10.5577 15.0218 10.6225C14.9246 10.6873 14.863 10.7749 14.8371 10.8851C14.8111 10.9888 14.7982 11.1022 14.7982 11.2254V14.6484C14.7982 14.7716 14.8079 14.8915 14.8274 15.0082C14.8533 15.1185 14.9149 15.2092 15.0121 15.2805Z" fill="black"/>
</svg>
