<svg width="24" height="24" viewBox="0 0 24 24" fill="none" xmlns="http://www.w3.org/2000/svg">
<path d="M19.7201 8.36057C20.0933 7.97326 20.0933 7.36008 19.7201 6.97276L16.1866 3.30609C15.8034 2.90841 15.1703 2.8967 14.7726 3.27994C14.3749 3.66317 14.3632 4.29623 14.7465 4.69391L16.6476 6.66667L5 6.66666C4.44772 6.66666 4 7.11438 4 7.66666C4 8.21895 4.44771 8.66666 5 8.66666L16.6476 8.66667L14.7465 10.6394C14.3632 11.0371 14.3749 11.6702 14.7726 12.0534C15.1703 12.4366 15.8034 12.4249 16.1866 12.0272L19.7201 8.36057ZM4.29289 15.6262C3.90237 16.0168 3.90237 16.6499 4.29289 17.0404L7.95956 20.7071C8.35008 21.0976 8.98325 21.0976 9.37377 20.7071C9.7643 20.3166 9.7643 19.6834 9.37377 19.2929L7.41421 17.3333H19C19.5523 17.3333 20 16.8856 20 16.3333C20 15.7811 19.5523 15.3333 19 15.3333H7.41421L9.37377 13.3738C9.7643 12.9833 9.7643 12.3501 9.37377 11.9596C8.98325 11.569 8.35008 11.569 7.95956 11.9596L4.29289 15.6262Z" fill="black"/>
</svg>
