<svg width="24" height="24" viewBox="0 0 24 24" fill="none" xmlns="http://www.w3.org/2000/svg">
<path d="M4.5 21C3.67157 21 3 20.3284 3 19.5L3 4.5C3 3.67157 3.67157 3 4.5 3L6.5 3C7.32843 3 8 3.67157 8 4.5L8 19.5C8 20.3284 7.32843 21 6.5 21H4.5Z" fill="black"/>
<path d="M11 21C10.1716 21 9.5 20.3284 9.5 19.5L9.5 4.5C9.5 3.67157 10.1716 3 11 3L13 3C13.8284 3 14.5 3.67157 14.5 4.5L14.5 19.5C14.5 20.3284 13.8284 21 13 21H11Z" fill="black"/>
<path d="M17.5 21C16.6716 21 16 20.3284 16 19.5L16 4.5C16 3.67157 16.6716 3 17.5 3L19.5 3C20.3284 3 21 3.67157 21 4.5V19.5C21 20.3284 20.3284 21 19.5 21H17.5Z" fill="black"/>
</svg>
