<svg width="24" height="24" viewBox="0 0 24 24" fill="none" xmlns="http://www.w3.org/2000/svg">
<path fill-rule="evenodd" clip-rule="evenodd" d="M18 4.5H9C8.44772 4.5 8 4.94772 8 5.5H6.5C6.5 4.11929 7.61929 3 9 3H18C19.3807 3 20.5 4.11929 20.5 5.5V16.5C20.5 17.8807 19.3807 19 18 19V17.5C18.5523 17.5 19 17.0523 19 16.5V5.5C19 4.94772 18.5523 4.5 18 4.5ZM6 7.5H15C15.5523 7.5 16 7.94771 16 8.5V19.5C16 20.0523 15.5523 20.5 15 20.5H6C5.44772 20.5 5 20.0523 5 19.5V8.5C5 7.94772 5.44772 7.5 6 7.5ZM3.5 8.5C3.5 7.11929 4.61929 6 6 6H15C16.3807 6 17.5 7.11929 17.5 8.5V19.5C17.5 20.8807 16.3807 22 15 22H6C4.61929 22 3.5 20.8807 3.5 19.5V8.5Z" fill="black"/>
</svg>
