<svg width="24" height="24" viewBox="0 0 24 24" fill="none" xmlns="http://www.w3.org/2000/svg">
<path fill-rule="evenodd" clip-rule="evenodd" d="M9 4.5H18C18.5523 4.5 19 4.94771 19 5.5V16.5C19 17.0523 18.5523 17.5 18 17.5V19C19.3807 19 20.5 17.8807 20.5 16.5V5.5C20.5 4.11929 19.3807 3 18 3H9C7.61929 3 6.5 4.11929 6.5 5.5H8C8 4.94772 8.44772 4.5 9 4.5ZM15 7.5H6C5.44772 7.5 5 7.94772 5 8.5V19.5C5 20.0523 5.44772 20.5 6 20.5H15C15.5523 20.5 16 20.0523 16 19.5V8.5C16 7.94771 15.5523 7.5 15 7.5ZM6 6C4.61929 6 3.5 7.11929 3.5 8.5V19.5C3.5 20.8807 4.61929 22 6 22H15C16.3807 22 17.5 20.8807 17.5 19.5V8.5C17.5 7.11929 16.3807 6 15 6H6ZM7.15 10C6.79101 10 6.5 10.291 6.5 10.65C6.5 11.009 6.79101 11.3 7.15 11.3H12.35C12.709 11.3 13 11.009 13 10.65C13 10.291 12.709 10 12.35 10H7.15ZM6.5 13.85C6.5 13.491 6.79101 13.2 7.15 13.2H13.85C14.209 13.2 14.5 13.491 14.5 13.85C14.5 14.2089 14.209 14.5 13.85 14.5H7.15C6.79101 14.5 6.5 14.2089 6.5 13.85ZM7.15 16.3999C6.79101 16.3999 6.5 16.6909 6.5 17.0499C6.5 17.4089 6.79101 17.6999 7.15 17.6999H12.85C13.209 17.6999 13.5 17.4089 13.5 17.0499C13.5 16.6909 13.209 16.3999 12.85 16.3999H7.15Z" fill="black"/>
</svg>
