<svg width="24" height="24" viewBox="0 0 24 24" fill="none" xmlns="http://www.w3.org/2000/svg">
<path fill-rule="evenodd" clip-rule="evenodd" d="M12.5417 20.2613C12.4377 20.2869 12.2817 20.2443 12.1721 20.0618C11.5719 19.0626 10.6933 17.1837 9.94851 15.5106C9.58015 14.6833 9.25085 13.9207 9.01359 13.365C8.895 13.0872 8.79952 12.8613 8.73377 12.705L8.70172 12.6287V3.73046L15.5061 3.73046C16.5015 3.73046 17.0793 4.02098 17.4516 4.36417C17.8338 4.7164 18.0797 5.19685 18.2826 5.74696C18.7735 7.7766 18.9852 9.08407 19.2731 10.8636C19.47 12.0806 19.3144 12.7314 19.1125 13.0523C18.9401 13.3264 18.6313 13.517 18.0469 13.517H13.9816C13.7484 13.517 13.5263 13.6222 13.3711 13.8061C13.2159 13.9901 13.1422 14.2353 13.1686 14.4803C13.3965 16.5926 13.5041 18.0479 13.3716 19.0217C13.3074 19.4937 13.196 19.7683 13.0775 19.9319C12.9735 20.0755 12.8228 20.1921 12.5417 20.2613ZM7.06535 3.73046V11.9465H5.34269C5.12482 11.9465 5.0076 11.8729 4.89972 11.6839C4.75722 11.4344 4.63638 10.9642 4.63638 10.1942V4.95923C4.63638 4.71036 4.69585 4.34245 4.83869 4.06996C4.96052 3.83753 5.10012 3.73046 5.34269 3.73046H7.06535ZM7.35205 13.677C7.40156 13.7939 7.45859 13.9281 7.52215 14.077C7.7619 14.6386 8.09496 15.4098 8.46801 16.2477C9.20598 17.9053 10.1264 19.8834 10.7909 20.9896C11.2194 21.7031 12.039 22.1617 12.9126 21.9467C13.5095 21.7998 14.0107 21.4895 14.3768 20.9839C14.7285 20.4982 14.9052 19.9013 14.9913 19.2681C15.1325 18.2303 15.0544 16.8734 14.8944 15.2475H18.0469C18.987 15.2475 19.9063 14.9146 20.4749 14.0108C21.0141 13.1538 21.1126 11.9724 20.886 10.5718L20.8853 10.5669C20.5942 8.76796 20.3722 7.39595 19.8557 5.26766C19.848 5.23564 19.8385 5.20411 19.8273 5.17324C19.5871 4.51007 19.2199 3.69851 18.5268 3.05966C17.8134 2.40215 16.8357 2.00001 15.5061 2.00001L5.34269 2C4.36567 2 3.74301 2.59093 3.40749 3.231C3.09297 3.83101 3 4.51009 3 4.95923V10.1942C3 11.0994 3.13323 11.938 3.49891 12.5784C3.8992 13.2794 4.54423 13.677 5.34269 13.677H7.35205Z" fill="black"/>
</svg>
