<svg width="24" height="24" viewBox="0 0 24 24" fill="none" xmlns="http://www.w3.org/2000/svg">
<path d="M8.45005 11.2C7.53878 11.2 6.80005 11.9387 6.80005 12.85V17.35C6.80005 18.2612 7.53878 19 8.45005 19H15.45C16.3613 19 17.1 18.2612 17.1 17.35V12.85C17.1 11.9387 16.3613 11.2 15.45 11.2H8.45005ZM8.10005 12.85C8.10005 12.6567 8.25675 12.5 8.45005 12.5H9.95V14.45H8.10005V12.85ZM8.10005 15.75H9.95V17.7H8.45005C8.25675 17.7 8.10005 17.5433 8.10005 17.35V15.75ZM15.8 15.75V17.35C15.8 17.5433 15.6433 17.7 15.45 17.7H11.25V15.75H15.8ZM11.25 14.45V12.5H15.45C15.6433 12.5 15.8 12.6567 15.8 12.85V14.45H11.25Z" fill="black"/>
<path d="M13.5363 2.5452C13.5531 2.55808 13.57 2.57105 13.585 2.586L19.414 8.414C19.789 8.789 20 9.298 20 9.828V20C20 21.104 19.104 22 18 22H6C4.896 22 4 21.104 4 20V4C4 2.896 4.896 2 6 2H12.172C12.1999 2 12.2271 2.00371 12.2542 2.00741C12.2738 2.01008 12.2933 2.01274 12.313 2.014C12.528 2.029 12.74 2.07 12.937 2.152C12.9944 2.17648 13.0488 2.20797 13.103 2.23933C13.1197 2.24897 13.1363 2.25859 13.153 2.268C13.1685 2.27647 13.1845 2.28426 13.2005 2.29207C13.2281 2.30548 13.2557 2.31894 13.281 2.336C13.359 2.389 13.429 2.452 13.5 2.516C13.5115 2.5262 13.5238 2.53567 13.5363 2.5452ZM5.5 20C5.5 20.275 5.724 20.5 6 20.5H18C18.276 20.5 18.5 20.275 18.5 20V10H14C12.896 10 12 9.104 12 8V3.5H6C5.724 3.5 5.5 3.725 5.5 4V20ZM14 8.5H17.378L13.5 4.621V8C13.5 8.275 13.724 8.5 14 8.5Z" fill="black"/>
</svg>
