<svg width="24" height="24" viewBox="0 0 24 24" fill="none" xmlns="http://www.w3.org/2000/svg">
<path fill-rule="evenodd" clip-rule="evenodd" d="M5.29289 5.70711C4.90237 5.31658 4.90237 4.68342 5.29289 4.29289C5.68342 3.90237 6.31658 3.90237 6.70711 4.29289L13.7071 11.2929C14.0976 11.6834 14.0976 12.3166 13.7071 12.7071L6.70711 19.7071C6.31658 20.0976 5.68342 20.0976 5.29289 19.7071C4.90237 19.3166 4.90237 18.6834 5.29289 18.2929L11.5858 12L5.29289 5.70711ZM10.2929 5.70711C9.90237 5.31658 9.90237 4.68342 10.2929 4.29289C10.6834 3.90237 11.3166 3.90237 11.7071 4.29289L18.7071 11.2929C19.0976 11.6834 19.0976 12.3166 18.7071 12.7071L11.7071 19.7071C11.3166 20.0976 10.6834 20.0976 10.2929 19.7071C9.90237 19.3166 9.90237 18.6834 10.2929 18.2929L16.5858 12L10.2929 5.70711Z" fill="black"/>
</svg>
