<svg width="24" height="24" viewBox="0 0 24 24" fill="none" xmlns="http://www.w3.org/2000/svg">
<path d="M16.2398 4.76097C17.3589 5.8801 17.3589 7.69456 16.2398 8.81369L6.65525 18.3982C6.43352 18.62 6.15776 18.78 5.85524 18.8625L1.75846 19.9798C1.3101 20.1021 0.898692 19.6907 1.02097 19.2423L2.13828 15.1455C2.22078 14.843 2.38081 14.5673 2.60254 14.3455L12.1871 4.76097C13.3062 3.64185 15.1207 3.64185 16.2398 4.76097ZM11.4107 7.23625L3.45194 15.1949C3.37803 15.2688 3.32469 15.3608 3.29719 15.4616L2.45644 18.5443L5.53918 17.7036C5.64002 17.6761 5.73193 17.6227 5.80584 17.5488L13.7643 9.58988L11.4107 7.23625ZM13.0365 5.61038L12.2596 6.38657L14.6132 8.741L15.3904 7.96428C16.0404 7.31427 16.0404 6.26039 15.3904 5.61038C14.7404 4.96037 13.6865 4.96037 13.0365 5.61038Z" fill="black"/>
<path d="M20.4618 13.5455L20.5563 11.4475L18.7864 12.586L18.2445 11.6414L20.1238 10.6819L18.2445 9.72236L18.7864 8.77775L20.5563 9.91625L20.4618 7.81824H21.5407L21.4462 9.91625L23.2161 8.77775L23.758 9.72236L21.8787 10.6819L23.758 11.6414L23.2161 12.586L21.4462 11.4475L21.5407 13.5455H20.4618Z" fill="#D93643"/>
</svg>
