<svg width="24" height="24" viewBox="0 0 24 24" fill="none" xmlns="http://www.w3.org/2000/svg">
<path d="M19.2407 4.83934C20.3598 5.95847 20.3598 7.77293 19.2407 8.89205L9.6561 18.4766C9.43437 18.6983 9.15862 18.8584 8.8561 18.9409L4.75932 20.0582C4.31095 20.1805 3.89955 19.769 4.02183 19.3207L5.13913 15.2239C5.22164 14.9214 5.38166 14.6456 5.60339 14.4239L15.1879 4.83934C16.3071 3.72022 18.1215 3.72022 19.2407 4.83934ZM14.4115 7.31462L6.4528 15.2733C6.37889 15.3472 6.32555 15.4391 6.29804 15.54L5.4573 18.6227L8.54003 17.782C8.64087 17.7545 8.73279 17.7011 8.8067 17.6272L16.7652 9.66825L14.4115 7.31462ZM16.0374 5.68875L15.2604 6.46494L17.614 8.81937L18.3913 8.04265C19.0413 7.39264 19.0413 6.33876 18.3913 5.68875C17.7412 5.03874 16.6874 5.03874 16.0374 5.68875Z" fill="black"/>
</svg>
