<svg width="24" height="24" viewBox="0 0 24 24" fill="none" xmlns="http://www.w3.org/2000/svg">
<g clip-path="url(#clip0_11278_101064)">
<path fill-rule="evenodd" clip-rule="evenodd" d="M3 2.00004C2.44772 2.00004 2 2.44775 2 3.00004V21C2 21.5523 2.44772 22 3 22H13.8027C13.2922 21.1175 13 20.0929 13 19C13 15.6863 15.6863 13 19 13C20.0929 13 21.1175 13.2922 22 13.8027V3.00004C22 2.44775 21.5523 2.00004 21 2.00004H3Z" fill="#EFEFEF"/>
<path fill-rule="evenodd" clip-rule="evenodd" d="M3.5 20.5V3.50004H20.5V13.189C21.0322 13.326 21.5357 13.5341 22 13.8027V3.00004C22 2.44775 21.5523 2.00004 21 2.00004H3C2.44772 2.00004 2 2.44775 2 3.00004V21C2 21.5523 2.44772 22 3 22H13.8027C13.5341 21.5358 13.326 21.0322 13.189 20.5H3.5Z" fill="#CFCFCF"/>
<path fill-rule="evenodd" clip-rule="evenodd" d="M7.64358 12.1155L8.31835 9.86626L9.28482 15.6651C9.41656 16.4555 10.5296 16.5162 10.7466 15.7448L11.617 12.65H12.927C13.2519 12.65 13.5398 12.4408 13.6402 12.1318L14.2793 10.1655L14.7286 14.7865C15.4632 14.0418 16.3911 13.4883 17.4309 13.2073L17.6747 12.65H18.9996C19.3586 12.65 19.6496 12.359 19.6496 12C19.6496 11.641 19.3586 11.35 18.9996 11.35H17.315C17.017 11.35 16.7473 11.5264 16.6279 11.7994L15.9049 13.4519L15.318 7.41443C15.2393 6.60525 14.1095 6.48201 13.8582 7.25519L12.5274 11.35H11.2004C10.8644 11.35 10.5693 11.5735 10.4784 11.897L10.1621 13.0214L9.21152 7.31767C9.08094 6.53419 7.98159 6.46468 7.75335 7.22546L6.51599 11.35H4.99961C4.64062 11.35 4.34961 11.641 4.34961 12C4.34961 12.359 4.64062 12.65 4.99961 12.65H6.92521C7.25641 12.65 7.5484 12.4328 7.64358 12.1155Z" fill="#CFCFCF"/>
<path d="M19.0007 22C20.6576 22 22.0007 20.6569 22.0007 19C22.0007 17.4104 20.7643 16.1095 19.2007 16.0066C19.0905 15.9993 19.0007 16.0888 19.0007 16.1993L19.0007 18.8786C19.0007 18.9531 18.9593 19.0216 18.8932 19.0561L16.5175 20.2947C16.4195 20.3458 16.3809 20.4671 16.4386 20.5614C16.9654 21.4241 17.9158 22 19.0007 22Z" fill="#1F90FF"/>
<path fill-rule="evenodd" clip-rule="evenodd" d="M24 19C24 21.7614 21.7614 24 19 24C16.2386 24 14 21.7614 14 19C14 16.2386 16.2386 14 19 14C21.7614 14 24 16.2386 24 19ZM23 19C23 21.2091 21.2091 23 19 23C16.7909 23 15 21.2091 15 19C15 16.7909 16.7909 15 19 15C21.2091 15 23 16.7909 23 19Z" fill="#1F90FF"/>
</g>
<defs>
<clipPath id="clip0_11278_101064">
<rect width="24" height="24" fill="white"/>
</clipPath>
</defs>
</svg>
