<svg width="24" height="24" viewBox="0 0 24 24" fill="none" xmlns="http://www.w3.org/2000/svg">
<path fill-rule="evenodd" clip-rule="evenodd" d="M13.7808 3.51877H9.86849C9.5984 3.51877 9.37945 3.74543 9.37945 4.02503C9.37945 4.30463 9.5984 4.53129 9.86849 4.53129H13.7808C14.0509 4.53129 14.2699 4.30463 14.2699 4.02503C14.2699 3.74543 14.0509 3.51877 13.7808 3.51877ZM9.86849 2C8.957 2 8.19111 2.64536 7.97396 3.51877H5.95616C4.8758 3.51877 4 4.42541 4 5.5438V19.719C4 20.8374 4.8758 21.7441 5.95616 21.7441H12.7182C12.5684 21.6216 12.4239 21.4889 12.2856 21.3457C11.9561 21.0046 11.6835 20.6269 11.4676 20.2253H5.95616C5.68607 20.2253 5.46712 19.9986 5.46712 19.719V5.5438C5.46712 5.26421 5.68607 5.03755 5.95616 5.03755H8.17403C8.51226 5.64283 9.14444 6.05006 9.86849 6.05006H13.7808C14.5049 6.05006 15.1371 5.64283 15.4753 5.03755H17.6931C17.9632 5.03755 18.1822 5.26421 18.1822 5.5438V13.3762C18.5468 13.5935 18.89 13.8635 19.2017 14.1861C19.3648 14.355 19.514 14.5329 19.6493 14.7181V5.5438C19.6493 4.42541 18.7735 3.51877 17.6931 3.51877H15.6754C15.4583 2.64528 14.6924 2 13.7808 2H9.86849ZM16.226 12.0348V12.7279C15.8074 12.6852 15.3845 12.6982 14.9685 12.767V12.324H12.6106V9.88316H11.0387V12.324H8.68082V13.9513H11.0387V16.3817C10.9214 16.8103 10.8598 17.2518 10.8538 17.694H10.7592C10.2191 17.694 9.78116 17.2407 9.78116 16.6815V15.2531H8.40137C7.86119 15.2531 7.42329 14.7998 7.42329 14.2406V12.0348C7.42329 11.4756 7.86119 11.0222 8.40137 11.0222H9.78116V9.59387C9.78116 9.03467 10.2191 8.58135 10.7592 8.58135H12.8901C13.4302 8.58135 13.8681 9.03467 13.8681 9.59387V11.0222H15.2479C15.7881 11.0222 16.226 11.4756 16.226 12.0348ZM17.4728 19.5558C18.4277 18.5673 18.4277 16.9646 17.4728 15.976C16.5179 14.9875 14.9697 14.9875 14.0148 15.976C13.0599 16.9646 13.0599 18.5673 14.0148 19.5558C14.9697 20.5443 16.5179 20.5443 17.4728 19.5558ZM18.5102 14.9021C19.8608 16.3002 20.0175 18.4661 18.9804 20.0424L20.5851 21.7036C20.8716 22.0002 20.8716 22.481 20.5851 22.7776C20.2987 23.0741 19.8342 23.0741 19.5477 22.7776L17.943 21.1164C16.4203 22.1901 14.3279 22.0279 12.9774 20.6298C11.4495 19.0481 11.4495 16.4837 12.9774 14.9021C14.5052 13.3205 16.9824 13.3205 18.5102 14.9021Z" fill="black"/>
</svg>
