<svg width="24" height="24" viewBox="0 0 24 24" fill="none" xmlns="http://www.w3.org/2000/svg">
<path fill-rule="evenodd" clip-rule="evenodd" d="M22 12C22 17.5228 17.5228 22 12 22C6.47715 22 2 17.5228 2 12C2 6.47715 6.47715 2 12 2C17.5228 2 22 6.47715 22 12ZM7.7072 7.70711C8.09772 7.31658 8.73089 7.31658 9.12141 7.70711L11.9499 10.5356L14.7783 7.70714C15.1689 7.31662 15.802 7.31662 16.1926 7.70714C16.5831 8.09766 16.5831 8.73083 16.1926 9.12135L13.3641 11.9498L16.1925 14.7782C16.583 15.1687 16.583 15.8019 16.1925 16.1924C15.802 16.5829 15.1688 16.5829 14.7783 16.1924L11.9499 13.364L9.12148 16.1924C8.73096 16.5829 8.09779 16.5829 7.70727 16.1924C7.31675 15.8019 7.31675 15.1687 7.70727 14.7782L10.5357 11.9498L7.7072 9.12132C7.31668 8.7308 7.31668 8.09763 7.7072 7.70711Z" fill="black"/>
</svg>
