<svg width="24" height="24" viewBox="0 0 24 24" fill="none" xmlns="http://www.w3.org/2000/svg">
<path fill-rule="evenodd" clip-rule="evenodd" d="M21.8968 11.5329C22.0344 11.8269 22.0344 12.1731 21.8968 12.4671C17.8191 21.1776 6.18093 21.1776 2.10325 12.4671C1.96558 12.1731 1.96559 11.8269 2.10325 11.5329C6.18093 2.82238 17.8191 2.82238 21.8968 11.5329ZM20.0708 12C16.5677 5.25801 7.43232 5.25801 3.92918 12C7.43232 18.742 16.5677 18.742 20.0708 12ZM12 8.113C14.0099 8.113 15.6393 9.85327 15.6393 12C15.6393 14.1467 14.0099 15.887 12 15.887C9.99008 15.887 8.36071 14.1467 8.36071 12C8.36071 9.85327 9.99008 8.113 12 8.113Z" fill="black"/>
</svg>
