<svg width="24" height="24" viewBox="0 0 24 24" fill="none" xmlns="http://www.w3.org/2000/svg">
<path fill-rule="evenodd" clip-rule="evenodd" d="M20.7197 4.86794C21.4244 3.87466 20.7141 2.5 19.4963 2.5H4.50263C3.28477 2.5 2.57456 3.87466 3.27924 4.86794L8.61876 12.394L9.11065 13.0874L9.11067 13.9374L9.11524 13.9373C9.17871 13.937 9.28646 13.9295 9.41042 13.8827C9.48537 13.8545 9.57807 13.8069 9.66694 13.7302C9.63246 13.76 9.59392 13.7884 9.55088 13.8144C9.39724 13.9074 9.24764 13.9418 9.11067 13.9405L9.11088 21.0008C9.11088 22.1721 10.3932 22.8915 11.3928 22.2809L14.1706 20.5842C14.6167 20.3118 14.8887 19.8268 14.8887 19.3041L14.8886 13.0874L20.7197 4.86794ZM14.4787 12.3426C14.3304 12.4242 14.2406 12.5318 14.1954 12.5955L14.1988 12.5979C14.2729 12.4955 14.3543 12.4235 14.4036 12.3893C14.4287 12.3718 14.4538 12.3564 14.4787 12.3426ZM13.1887 19.1919L13.1886 12.5456L19.1092 4.2H4.88975L10.8106 12.5455L10.8109 20.6443L13.1887 19.1919ZM10.8109 21.0008C10.8109 21.0007 10.8109 21.0009 10.8109 21.0008V21.0008Z" fill="black"/>
</svg>
