<svg width="24" height="24" viewBox="0 0 24 24" fill="none" xmlns="http://www.w3.org/2000/svg">
<path fill-rule="evenodd" clip-rule="evenodd" d="M4.5 4.75C4.08579 4.75 3.75 5.08579 3.75 5.5V18.5C3.75 18.9142 4.08579 19.25 4.5 19.25H19.5C19.9142 19.25 20.25 18.9142 20.25 18.5V8.5C20.25 8.08579 19.9142 7.75 19.5 7.75H14.0549C13.5178 7.75 12.9984 7.55787 12.5906 7.20833L9.93321 4.93056C9.79728 4.81404 9.62415 4.75 9.44511 4.75H4.5Z" fill="#FAD195"/>
<path fill-rule="evenodd" clip-rule="evenodd" d="M3.75 5.5C3.75 5.08579 4.08579 4.75 4.5 4.75H9.44511C9.62415 4.75 9.79728 4.81404 9.93321 4.93056L12.5906 7.20833C12.9984 7.55787 13.5178 7.75 14.0549 7.75H19.5C19.9142 7.75 20.25 8.08579 20.25 8.5V9.5H3.75V5.5ZM3.75 11V18.5C3.75 18.9142 4.08579 19.25 4.5 19.25H19.5C19.9142 19.25 20.25 18.9142 20.25 18.5V11H3.75ZM4.5 3.25C3.25736 3.25 2.25 4.25736 2.25 5.5V18.5C2.25 19.7426 3.25736 20.75 4.5 20.75H19.5C20.7426 20.75 21.75 19.7426 21.75 18.5V8.5C21.75 7.25736 20.7426 6.25 19.5 6.25H14.0549C13.8759 6.25 13.7027 6.18596 13.5668 6.06944L10.9094 3.79167C10.5016 3.44213 9.98221 3.25 9.44511 3.25H4.5Z" fill="#F7AE47"/>
</svg>
