<svg width="8" height="14" viewBox="0 0 8 14" fill="none" xmlns="http://www.w3.org/2000/svg">
<path d="M1 2C1.55228 2 2 1.55228 2 1C2 0.447715 1.55228 0 1 0C0.447715 0 0 0.447715 0 1C0 1.55228 0.447715 2 1 2Z" fill="black" fill-opacity="0.6"/>
<path d="M1 8C1.55228 8 2 7.55228 2 7C2 6.44771 1.55228 6 1 6C0.447715 6 0 6.44771 0 7C0 7.55228 0.447715 8 1 8Z" fill="black" fill-opacity="0.6"/>
<path d="M2 13C2 13.5523 1.55228 14 1 14C0.447715 14 0 13.5523 0 13C0 12.4477 0.447715 12 1 12C1.55228 12 2 12.4477 2 13Z" fill="black" fill-opacity="0.6"/>
<path d="M7 2C7.55228 2 8 1.55228 8 1C8 0.447715 7.55228 0 7 0C6.44771 0 6 0.447715 6 1C6 1.55228 6.44771 2 7 2Z" fill="black" fill-opacity="0.6"/>
<path d="M8 7C8 7.55228 7.55228 8 7 8C6.44771 8 6 7.55228 6 7C6 6.44771 6.44771 6 7 6C7.55228 6 8 6.44771 8 7Z" fill="black" fill-opacity="0.6"/>
<path d="M7 14C7.55228 14 8 13.5523 8 13C8 12.4477 7.55228 12 7 12C6.44771 12 6 12.4477 6 13C6 13.5523 6.44771 14 7 14Z" fill="black" fill-opacity="0.6"/>
</svg>
