<svg width="24" height="24" viewBox="0 0 24 24" fill="none" xmlns="http://www.w3.org/2000/svg">
<path fill-rule="evenodd" clip-rule="evenodd" d="M3.02966 10.9983C2.49512 10.9386 2.0084 11.3241 2.00096 11.8619C1.97159 13.9843 2.61886 16.0708 3.8623 17.8118C5.29521 19.8182 7.4188 21.2245 9.8253 21.7607C12.2318 22.2969 14.7515 21.9251 16.9007 20.7169C19.0498 19.5086 20.6769 17.549 21.4694 15.2143C22.2618 12.8796 22.1639 10.3345 21.1944 8.06763C20.2249 5.80076 18.4521 3.97195 16.2165 2.93239C13.9808 1.89282 11.44 1.71579 9.08178 2.43529C7.29979 2.97898 5.71704 4.00565 4.50002 5.38559V3.00001C4.50002 2.44772 4.05231 2.00001 3.50002 2.00001C2.94774 2.00001 2.50002 2.44772 2.50002 3.00001V8.00001C2.50002 8.55229 2.94774 9.00001 3.50002 9.00001H8.50002C9.05231 9.00001 9.50002 8.55229 9.50002 8.00001C9.50002 7.44772 9.05231 7.00001 8.50002 7.00001L5.68822 7.00001C6.69882 5.72423 8.07823 4.77787 9.65018 4.29826C11.5491 3.71891 13.595 3.86146 15.3952 4.69854C17.1954 5.53562 18.6229 7.00822 19.4036 8.83357C20.1842 10.6589 20.2631 12.7083 19.625 14.5882C18.9868 16.4682 17.6767 18.0461 15.9462 19.019C14.2156 19.9919 12.1867 20.2913 10.2489 19.8595C8.31112 19.4278 6.60115 18.2954 5.44733 16.6798C4.48315 15.3298 3.96414 13.7219 3.94815 12.0785C3.94291 11.5406 3.5642 11.058 3.02966 10.9983ZM10.5 7.50001C10.5 6.94772 10.9477 6.50001 11.5 6.50001C12.0523 6.50001 12.5 6.94772 12.5 7.50001V12H15C15.5523 12 16 12.4477 16 13C16 13.5523 15.5523 14 15 14H11.5C10.9477 14 10.5 13.5523 10.5 13V7.50001Z" fill="black"/>
</svg>
