<svg width="24" height="24" viewBox="0 0 24 24" fill="none" xmlns="http://www.w3.org/2000/svg">
<path d="M13 13C13.03 13 13.0599 13.0007 13.0896 13.002C12.6754 13.4467 12.3292 13.951 12.0668 14.4999L4 14.499L3.89934 14.509C3.77496 14.5343 3.69 14.6018 3.646 14.645C3.6028 14.689 3.53528 14.7733 3.51 14.898L3.5 14.999V16.5C3.5 17.509 3.95 18.222 4.917 18.742C5.74315 19.1869 6.91951 19.4563 8.18258 19.4951L8.5 19.5L8.8174 19.4951C9.94791 19.4604 11.0084 19.2409 11.8116 18.8761C11.9753 19.3538 12.1997 19.805 12.4762 20.2213C11.2546 20.7889 9.77905 21 8.5 21C5.77787 21 2.1647 20.044 2.00545 16.7296L2 16.5V14.999C2 13.9452 2.8164 13.0809 3.85081 13.0045L4 12.999L13 13Z" fill="black"/>
<path fill-rule="evenodd" clip-rule="evenodd" d="M8.5 2C10.985 2 13 4.015 13 6.5C13 8.985 10.985 11 8.5 11C6.015 11 4 8.985 4 6.5C4 4.015 6.015 2 8.5 2ZM8.5 3.5C6.846 3.5 5.5 4.846 5.5 6.5C5.5 8.154 6.846 9.5 8.5 9.5C10.154 9.5 11.5 8.154 11.5 6.5C11.5 4.846 10.154 3.5 8.5 3.5Z" fill="black"/>
<path fill-rule="evenodd" clip-rule="evenodd" d="M17.5 4C19.433 4 21 5.567 21 7.5C21 9.433 19.433 11 17.5 11C15.567 11 14 9.433 14 7.5C14 5.567 15.567 4 17.5 4ZM17.5 5.5C16.397 5.5 15.5 6.397 15.5 7.5C15.5 8.603 16.397 9.5 17.5 9.5C18.603 9.5 19.5 8.603 19.5 7.5C19.5 6.397 18.603 5.5 17.5 5.5Z" fill="black"/>
<path fill-rule="evenodd" clip-rule="evenodd" d="M19.1708 12.1298C18.7882 12.0478 18.3977 12.0043 18.0057 12C17.6039 12.0044 17.2131 12.0479 16.83 12.1297C16.6628 12.1654 16.5378 12.2992 16.5188 12.4625L16.428 13.2449C16.4019 13.4688 16.2667 13.6677 16.0636 13.7809C15.8595 13.8953 15.6121 13.909 15.3969 13.8183L14.649 13.5029C14.4934 13.4372 14.3117 13.473 14.1955 13.5921C13.6549 14.1465 13.2523 14.8114 13.018 15.5367C12.9674 15.6932 13.0257 15.8633 13.1632 15.9604L13.8268 16.4294C14.0162 16.563 14.1279 16.7749 14.1279 17.0002C14.1279 17.2256 14.0162 17.4375 13.827 17.5709L13.163 18.0407C13.0258 18.1378 12.9675 18.3076 13.0179 18.464C13.2518 19.19 13.6542 19.8556 14.1948 20.4108C14.3108 20.5299 14.4925 20.5658 14.6481 20.5004L15.3994 20.1843C15.6136 20.0945 15.8599 20.1077 16.0628 20.22C16.2657 20.3323 16.4011 20.5304 16.4276 20.7539L16.5177 21.5356C16.5364 21.6971 16.6586 21.8299 16.8232 21.8675C17.5967 22.0442 18.4027 22.0442 19.1763 21.8675C19.3409 21.8299 19.4631 21.6971 19.4817 21.5356L19.572 20.7527C19.5978 20.5288 19.733 20.3301 19.936 20.2174C20.1391 20.1048 20.3859 20.0915 20.6008 20.1818L21.3519 20.4978C21.5074 20.5632 21.6891 20.5274 21.8051 20.4083C22.3454 19.8538 22.7478 19.189 22.982 18.4638C23.0325 18.3073 22.9743 18.1373 22.837 18.0402L22.1734 17.5707C21.9838 17.437 21.8721 17.2251 21.8721 16.9997C21.8721 16.7744 21.9838 16.5625 22.173 16.429L22.836 15.9598C22.9733 15.8626 23.0315 15.6926 22.9809 15.5362C22.7466 14.8109 22.344 14.146 21.8034 13.5916C21.6873 13.4725 21.5055 13.4367 21.3499 13.5023L20.6019 13.8179C20.5083 13.8576 20.408 13.8779 20.3067 13.8777C19.9299 13.8774 19.6137 13.6051 19.5726 13.2455L19.4817 12.4625C19.4627 12.2992 19.3378 12.1655 19.1708 12.1298ZM16.3968 17C16.3968 16.1503 17.1141 15.4615 17.999 15.4615C18.8839 15.4615 19.6013 16.1503 19.6013 17C19.6013 17.8497 18.8839 18.5385 17.999 18.5385C17.1141 18.5385 16.3968 17.8497 16.3968 17Z" fill="black"/>
</svg>
