<svg width="20" height="20" viewBox="0 0 20 20" fill="none" xmlns="http://www.w3.org/2000/svg">
<g id="inpatient">
<path id="Icon" d="M4.04746 5.47619C4.04746 3.83249 5.37994 2.5 7.02365 2.5H12.976C14.6197 2.5 15.9522 3.83249 15.9522 5.47619V7.32144C17.3107 7.59719 18.3332 8.79824 18.3332 10.2381V16.1905C18.3332 16.5192 18.0666 16.7857 17.7379 16.7857C17.4092 16.7857 17.1427 16.5192 17.1427 16.1905V13.2143H2.85698V16.1905C2.85698 16.5192 2.59048 16.7857 2.26174 16.7857C1.933 16.7857 1.6665 16.5192 1.6665 16.1905V10.2381C1.6665 8.79824 2.68898 7.59719 4.04746 7.32144V5.47619ZM2.85698 12.0238H17.1427V10.2381C17.1427 9.25187 16.3432 8.45238 15.357 8.45238H4.64269C3.65647 8.45238 2.85698 9.25187 2.85698 10.2381V12.0238ZM14.7617 5.47619C14.7617 4.48996 13.9622 3.69048 12.976 3.69048H7.02365C6.03742 3.69048 5.23793 4.48996 5.23793 5.47619V7.2619H6.42841V6.66667C6.42841 6.33793 6.69491 6.07143 7.02365 6.07143H8.80936C9.1381 6.07143 9.4046 6.33793 9.4046 6.66667V7.2619H10.5951V6.66667C10.5951 6.33793 10.8616 6.07143 11.1903 6.07143H12.976C13.3047 6.07143 13.5713 6.33793 13.5713 6.66667V7.2619H14.7617V5.47619Z" fill="#0074E6"/>
</g>
</svg>
