<svg width="24" height="24" viewBox="0 0 24 24" fill="none" xmlns="http://www.w3.org/2000/svg">
<path fill-rule="evenodd" clip-rule="evenodd" d="M6.5 2C5.11929 2 4 3.11929 4 4.5V19.5C4 20.8807 5.11929 22 6.5 22H19.75C20.1642 22 20.5 21.6642 20.5 21.25C20.5 20.8358 20.1642 20.5 19.75 20.5H6.5C5.94772 20.5 5.5 20.0523 5.5 19.5H19.75C20.1642 19.5 20.5 19.1642 20.5 18.75V4.5C20.5 3.11929 19.3807 2 18 2H6.5ZM19 18H5.5V4.5C5.5 3.94772 5.94772 3.5 6.5 3.5H18C18.5523 3.5 19 3.94772 19 4.5V18Z" fill="black"/>
<path d="M13.2381 9.64615C13.1882 9.28011 12.8743 8.99816 12.4946 8.99841C12.0804 8.99868 11.7448 9.33468 11.7451 9.7489L11.7487 15.2505L11.7556 15.3523C11.8055 15.7183 12.1195 16.0002 12.4992 16C12.9134 15.9997 13.2489 15.6637 13.2487 15.2495L13.2451 9.74791L13.2381 9.64615Z" fill="black"/>
<path d="M13.4973 6.4993C13.4973 5.94776 13.0502 5.50064 12.4987 5.50064C11.9471 5.50064 11.5 5.94776 11.5 6.4993C11.5 7.05085 11.9471 7.49797 12.4987 7.49797C13.0502 7.49797 13.4973 7.05085 13.4973 6.4993Z" fill="black"/>
</svg>
