<svg width="24" height="24" viewBox="0 0 24 24" fill="none" xmlns="http://www.w3.org/2000/svg">
<path fill-rule="evenodd" clip-rule="evenodd" d="M12.5417 3.73873C12.4377 3.71313 12.2817 3.75573 12.1721 3.93822C11.5719 4.9374 10.6933 6.81632 9.94851 8.48936C9.58015 9.31675 9.25085 10.0793 9.01359 10.635C8.895 10.9128 8.79952 11.1387 8.73377 11.295L8.70172 11.3713V20.2695L15.5061 20.2695C16.5015 20.2695 17.0793 19.979 17.4516 19.6358C17.8338 19.2836 18.0797 18.8031 18.2826 18.253C18.7735 16.2234 18.9852 14.9159 19.2731 13.1364C19.47 11.9194 19.3144 11.2686 19.1125 10.9477C18.9401 10.6736 18.6313 10.483 18.0469 10.483L13.9816 10.483C13.7484 10.483 13.5263 10.3778 13.3711 10.1939C13.2159 10.0099 13.1422 9.76468 13.1686 9.51972C13.3965 7.40741 13.5041 5.95208 13.3716 4.9783C13.3074 4.50628 13.196 4.23168 13.0775 4.06812C12.9735 3.92448 12.8228 3.80787 12.5417 3.73873ZM7.06535 20.2695V12.0535H5.34269C5.12482 12.0535 5.0076 12.1271 4.89972 12.3161C4.75722 12.5656 4.63638 13.0358 4.63638 13.8058V19.0408C4.63638 19.2896 4.69585 19.6576 4.83869 19.93C4.96052 20.1625 5.10012 20.2695 5.34269 20.2695H7.06535ZM7.35205 10.323C7.40156 10.2061 7.45859 10.0719 7.52215 9.92304C7.7619 9.36142 8.09496 8.59019 8.46801 7.75226C9.20598 6.09466 10.1264 4.1166 10.7909 3.01038C11.2194 2.29692 12.039 1.83834 12.9126 2.05329C13.5095 2.20016 14.0107 2.51051 14.3768 3.01612C14.7285 3.50181 14.9052 4.09875 14.9913 4.7319C15.1325 5.76972 15.0544 7.12663 14.8944 8.75254L18.0469 8.75254C18.987 8.75254 19.9063 9.08539 20.4749 9.98918C21.0141 10.8462 21.1126 12.0276 20.886 13.4282L20.8852 13.4331C20.5942 15.232 20.3722 16.6041 19.8557 18.7323C19.848 18.7644 19.8385 18.7959 19.8273 18.8268C19.5871 19.4899 19.2199 20.3015 18.5268 20.9403C17.8134 21.5978 16.8357 22 15.5061 22L5.34269 22C4.36567 22 3.74301 21.4091 3.40749 20.769C3.09297 20.169 3 19.4899 3 19.0408V13.8058C3 12.9006 3.13323 12.062 3.49891 11.4216C3.8992 10.7206 4.54423 10.323 5.34269 10.323H7.35205Z" fill="black"/>
</svg>
