<svg width="24" height="24" viewBox="0 0 24 24" fill="none" xmlns="http://www.w3.org/2000/svg">
<path fill-rule="evenodd" clip-rule="evenodd" d="M14.9604 2.42531C15.1973 2.18847 15.1973 1.80448 14.9604 1.56764C14.7236 1.33081 14.3396 1.33081 14.1028 1.56764L8.49385 7.17657C8.24229 7.42813 8.04443 7.72815 7.91225 8.05844L6.35281 11.9552C6.2552 12.1991 6.11862 12.4256 5.94841 12.6257L4.83918 13.9297C4.38643 14.462 4.33553 15.2086 4.6711 15.7878L1.08889 19.37C0.93746 19.5215 0.986465 19.7779 1.18306 19.8628L6.07447 21.9757C6.18859 22.025 6.32123 21.9996 6.40913 21.9117L8.60206 19.7188C9.1813 20.0543 9.92789 20.0034 10.4602 19.5507L11.7642 18.4415C11.9643 18.2713 12.1908 18.1347 12.4347 18.0371L16.3315 16.4778C16.6618 16.3456 16.9619 16.1477 17.2135 15.8961L22.8224 10.2872C23.0592 10.0504 23.0592 9.66641 22.8224 9.42957C22.5855 9.19274 22.2015 9.19274 21.9647 9.42957L19.4632 11.9311L12.4589 4.92683L14.9604 2.42531ZM11.3868 5.99891L9.9574 7.42835L16.9617 14.4326L18.3911 13.0032L11.3868 5.99891ZM7.47891 12.4059L8.99708 8.6122L15.7778 15.3929L11.9841 16.911C11.6182 17.0574 11.2785 17.2623 10.9783 17.5176L9.67429 18.6268C9.51381 18.7633 9.27542 18.7537 9.12645 18.6047L5.78516 15.2634C5.63619 15.1145 5.62658 14.8761 5.76308 14.7156L6.87231 13.4115C7.12763 13.1114 7.3325 12.7717 7.47891 12.4059Z" fill="black"/>
</svg>
