<svg width="24" height="24" viewBox="0 0 24 24" fill="none" xmlns="http://www.w3.org/2000/svg">
<path d="M12.4968 3.00146L20.0525 3.00293L20.1734 3.01682L20.2611 3.03636L20.365 3.07084L20.4541 3.11117L20.5179 3.14679L20.5805 3.18832L20.6445 3.23821L20.7076 3.29654L20.802 3.40618L20.8736 3.51742L20.9271 3.63015L20.9624 3.73549L20.9781 3.80067L20.9873 3.85302L20.9983 4.00147V11.5054C20.9983 12.0576 20.5506 12.5054 19.9983 12.5054C19.4854 12.5054 19.0628 12.1193 19.005 11.622L18.9983 11.5054L18.998 6.41547L6.41302 18.9995L11.5006 19C12.0134 19 12.4361 19.386 12.4938 19.8834L12.5006 20C12.5006 20.5128 12.1145 20.9355 11.6172 20.9933L11.5006 21L3.93962 20.9982L3.84404 20.9881L3.76739 20.973L3.6899 20.9512L3.62087 20.926L3.53078 20.8838L3.44123 20.8301L3.34976 20.7606L3.38227 20.7872C3.32046 20.7387 3.2645 20.6831 3.21563 20.6216L3.16451 20.5512L3.12575 20.4877L3.09275 20.4233L3.05896 20.3418L3.03384 20.2622L3.01034 20.1504L3.00299 20.0892L2.99902 20V12.4961C2.99902 11.9438 3.44674 11.4961 3.99902 11.4961C4.51186 11.4961 4.93453 11.8821 4.9923 12.3795L4.99902 12.4961V17.5845L17.583 5.00147H12.4968C11.9839 5.00147 11.5612 4.61542 11.5035 4.11809L11.4968 4.00147C11.4968 3.44918 11.9445 3.00146 12.4968 3.00146Z" fill="black"/>
</svg>
