<svg width="24" height="24" viewBox="0 0 24 24" fill="none" xmlns="http://www.w3.org/2000/svg">
<path fill-rule="evenodd" clip-rule="evenodd" d="M6.75 3.75V20.25H19.25V3.75H6.75ZM6.16667 2C5.52233 2 5 2.52233 5 3.16666V5H3.75C3.33579 5 3 5.33579 3 5.75C3 6.16421 3.33579 6.5 3.75 6.5H5V9H3.75C3.33579 9 3 9.33579 3 9.75C3 10.1642 3.33579 10.5 3.75 10.5H5V13H3.75C3.33579 13 3 13.3358 3 13.75C3 14.1642 3.33579 14.5 3.75 14.5H5V17H3.75C3.33579 17 3 17.3358 3 17.75C3 18.1642 3.33579 18.5 3.75 18.5H5V20.8333C5 21.4777 5.52233 22 6.16667 22H19.8333C20.4777 22 21 21.4777 21 20.8333V3.16667C21 2.52233 20.4777 2 19.8333 2H6.16667ZM12.3501 6C12.1568 6 12.0001 6.1567 12.0001 6.35V8H10.35C10.1567 8 10 8.1567 10 8.35V9.65C10 9.8433 10.1567 10 10.35 10H12.0001V11.65C12.0001 11.8433 12.1568 12 12.3501 12H13.6501C13.8434 12 14.0001 11.8433 14.0001 11.65V10H15.65C15.8433 10 16 9.8433 16 9.65V8.35C16 8.1567 15.8433 8 15.65 8H14.0001V6.35C14.0001 6.1567 13.8434 6 13.6501 6H12.3501ZM9 14.75C9 14.3358 9.33578 14 9.75 14H15.25C15.6642 14 16 14.3358 16 14.75C16 15.1642 15.6642 15.5 15.25 15.5H9.75C9.33578 15.5 9 15.1642 9 14.75ZM9.75 16.5C9.33579 16.5 9 16.8358 9 17.25C9 17.6642 9.33579 18 9.75 18H14.25C14.6642 18 15 17.6642 15 17.25C15 16.8358 14.6642 16.5 14.25 16.5H9.75Z" fill="black"/>
</svg>
