<svg width="24" height="24" viewBox="0 0 24 24" fill="none" xmlns="http://www.w3.org/2000/svg">
<path fill-rule="evenodd" clip-rule="evenodd" d="M16.5986 20.9809C16.9773 20.8539 17.148 20.423 16.9793 20.061C16.8323 19.7457 16.4683 19.5982 16.1362 19.7019C12.9908 20.6844 8.86304 20.5072 6.54657 17.9855C2.71243 13.3616 4.68665 4.72702 11.212 4.01007C13.5706 3.65679 16.1059 4.37374 17.7684 6.06741C19.4621 7.75069 20.0024 10.3276 19.7323 12.7798C19.5764 14.4111 18.714 16.3437 16.9684 15.8969C16.5839 15.7722 16.2306 15.5021 16.2722 15.0865C16.2623 12.6029 16.2712 10.11 16.2987 7.62553C16.3012 7.40277 16.1213 7.22077 15.8986 7.22077H15.3573C15.1345 7.22077 14.9547 7.40272 14.9571 7.62545C14.961 7.99458 14.9643 8.36388 14.9672 8.7333C14.2827 7.76213 13.2275 7.10434 11.7937 7.08569C5.9542 6.91944 5.90224 17.3412 11.7729 17.1438C13.2223 17.0913 14.2976 16.3591 14.9899 15.3115C15.1462 17.1457 17.6266 17.7605 18.9841 16.8113C22.2884 14.328 21.5402 7.76108 18.8283 5.03874C16.8333 2.90866 13.7992 2.00468 10.973 2.36835C2.90985 3.17882 0.426495 13.4655 5.37243 19.0661C8.28821 22.0014 12.8256 22.2464 16.5986 20.9809ZM11.7937 8.51959C8.13623 8.65467 8.07388 15.6372 11.7522 15.7722C15.7006 15.845 15.9188 8.34295 11.7937 8.51959Z" fill="black"/>
</svg>
