<svg width="24" height="24" viewBox="0 0 24 24" fill="none" xmlns="http://www.w3.org/2000/svg">
<path d="M10.4981 12.5046C11.0109 12.5046 11.4336 12.8906 11.4914 13.388L11.4981 13.5046V21.0085C11.4981 21.5608 11.0504 22.0085 10.4981 22.0085C9.98527 22.0085 9.5626 21.6225 9.50484 21.1251L9.49811 21.0085L9.49758 15.9154L3.70711 21.7071C3.34663 22.0676 2.7794 22.0953 2.38711 21.7903L2.2929 21.7071C1.93242 21.3466 1.90469 20.7794 2.20971 20.3871L2.2929 20.2929L8.08058 14.5044L2.99658 14.5046C2.4443 14.5046 1.99658 14.0569 1.99658 13.5046C1.99658 12.9918 2.38262 12.5691 2.87996 12.5113L2.99658 12.5046H10.4981ZM13.4991 1.99939C14.0119 1.99939 14.4346 2.38543 14.4924 2.88277L14.4991 2.99939L14.4986 8.08639L20.2929 2.29287C20.6534 1.93238 21.2206 1.90465 21.6129 2.20968L21.7071 2.29287C22.0676 2.65335 22.0953 3.22058 21.7903 3.61287L21.7071 3.70708L15.9106 9.50239L21.0006 9.50328C21.5529 9.50328 22.0006 9.951 22.0006 10.5033C22.0006 11.0161 21.6146 11.4388 21.1173 11.4966L21.0006 11.5033H13.4991C12.9863 11.5033 12.5636 11.1172 12.5058 10.6199L12.4991 10.5033V2.99939C12.4991 2.4471 12.9468 1.99939 13.4991 1.99939Z" fill="black"/>
</svg>
