<svg width="24" height="24" viewBox="0 0 24 24" fill="none" xmlns="http://www.w3.org/2000/svg">
<path fill-rule="evenodd" clip-rule="evenodd" d="M15.5195 18.2878H19.8542C20.4228 18.2872 20.9679 18.0525 21.3699 17.635C21.7719 17.2175 21.998 16.6514 21.9985 16.061V15.0049C21.9995 14.9886 22 14.9723 22 14.9559C22 14.9395 21.9995 14.9232 21.9985 14.9069V5.22729C21.998 4.63684 21.7719 4.07071 21.3699 3.65315C20.9679 3.23558 20.4228 3.00068 19.8542 3H4.14478C3.57615 3.00068 3.031 3.23556 2.62892 3.65311C2.22684 4.07067 2.00066 4.63679 2 5.22729V14.9559V16.061C2.00066 16.6515 2.22685 17.2175 2.62895 17.635C3.03104 18.0525 3.57619 18.2872 4.14478 18.2878H8.4796L8.05319 19.4502H7.049C6.85108 19.4502 6.66126 19.5318 6.52131 19.6772C6.38136 19.8225 6.30273 20.0196 6.30273 20.2252C6.30273 20.4307 6.38136 20.6278 6.52131 20.7732C6.66126 20.9185 6.85108 21.0002 7.049 21.0002H16.9495C17.1474 21.0002 17.3372 20.9185 17.4772 20.7732C17.6171 20.6278 17.6958 20.4307 17.6958 20.2252C17.6958 20.0196 17.6171 19.8225 17.4772 19.6772C17.3372 19.5318 17.1474 19.4502 16.9495 19.4502H15.9459L15.5195 18.2878ZM3.49254 14.1809V5.22729C3.49267 5.0477 3.56143 4.87549 3.68372 4.7485C3.80601 4.6215 3.97183 4.5501 4.14478 4.54996H19.8542C20.0271 4.55023 20.1928 4.6217 20.315 4.74868C20.4371 4.87566 20.5058 5.04779 20.506 5.22729V14.1809H3.49254ZM3.49254 15.7309H20.506V16.061C20.5057 16.2404 20.437 16.4124 20.3148 16.5393C20.1926 16.6662 20.027 16.7375 19.8542 16.7378H14.4563L14.4373 16.7375H9.56172L9.54277 16.7378H4.14478C3.97192 16.7377 3.80617 16.6664 3.68389 16.5395C3.56162 16.4126 3.4928 16.2405 3.49254 16.061V15.7309ZM10.0765 18.2878H13.923L14.3493 19.45H9.64978L10.0765 18.2878Z" fill="black"/>
</svg>
