<svg width="16" height="16" viewBox="0 0 16 16" fill="none" xmlns="http://www.w3.org/2000/svg">
<g id="Edit off/24/Theme8">
<path id="Shape" d="M5.96076 6.66687L1.481 2.18701C1.28574 1.99175 1.28574 1.67516 1.481 1.4799C1.67627 1.28464 1.99285 1.28465 2.18811 1.47991L14.5213 13.8133C14.7166 14.0086 14.7166 14.3252 14.5213 14.5205C14.326 14.7157 14.0094 14.7157 13.8142 14.5204L9.3345 10.0407L6.04254 13.3326C5.85796 13.5172 5.6284 13.6504 5.37655 13.7191L1.9661 14.6493C1.59285 14.751 1.25036 14.4086 1.35215 14.0353L2.28228 10.6249C2.35096 10.373 2.48418 10.1434 2.66877 9.95887L5.96076 6.66687ZM8.62731 9.33346L6.66788 7.37399L3.37587 10.666C3.31434 10.7275 3.26994 10.804 3.24704 10.888L2.54715 13.4543L5.11344 12.7544C5.19739 12.7315 5.2739 12.6871 5.33543 12.6255L8.62731 9.33346ZM11.9607 5.99992L10.041 7.91967L10.7483 8.62692L14.0214 5.35375C14.9531 4.42211 14.9531 2.91162 14.0214 1.97998C13.0898 1.04834 11.5793 1.04834 10.6477 1.97998L7.37452 5.25312L8.08164 5.96025L10.0013 4.04058L11.9607 5.99992ZM11.3548 2.68709C11.8959 2.14597 12.7732 2.14597 13.3143 2.68709C13.8554 3.22821 13.8554 4.10553 13.3143 4.64665L12.6673 5.29325L10.708 3.33325L11.3548 2.68709Z" fill="#262626" fill-opacity="0.6"/>
</g>
</svg>
