<svg width="20" height="20" viewBox="0 0 20 20" fill="none" xmlns="http://www.w3.org/2000/svg">
<path d="M5.20859 6.24996C4.51825 6.24996 3.95862 6.8096 3.95862 7.49996L3.95862 14.7916C3.95862 15.482 4.51825 16.0416 5.20859 16.0416H12.5003C13.1907 16.0416 13.7503 15.482 13.7503 14.7916V11.4583C13.7503 10.9981 14.1234 10.625 14.5836 10.625C15.0438 10.625 15.4169 10.9981 15.4169 11.4583V14.7916C15.4169 16.4025 14.1111 17.7083 12.5003 17.7083H5.20859C3.5978 17.7083 2.29199 16.4025 2.29199 14.7916L2.29199 7.49996C2.29199 5.88913 3.5978 4.58329 5.20859 4.58329H8.54184C9.00207 4.58329 9.37515 4.95639 9.37515 5.41663C9.37515 5.87686 9.00207 6.24996 8.54184 6.24996H5.20859ZM10.6251 3.12496C10.6251 2.66472 10.9982 2.29163 11.4584 2.29163H16.8753C17.3356 2.29163 17.7087 2.66472 17.7087 3.12496V8.54163C17.7087 9.00186 17.3356 9.37496 16.8753 9.37496C16.4151 9.37496 16.042 9.00186 16.042 8.54163V5.13684L12.0476 9.13091C11.7222 9.45633 11.1946 9.45631 10.8692 9.13085C10.5438 8.8054 10.5438 8.27776 10.8692 7.95234L14.8636 3.95829H11.4584C10.9982 3.95829 10.6251 3.5852 10.6251 3.12496Z" fill="black"/>
</svg>
