<svg xmlns="http://www.w3.org/2000/svg" width="20" height="20" viewBox="0 0 20 20" fill="none">
  <g clip-path="url(#clip0_5064_1178)">
    <path d="M4.00467 10.0002C4.00457 9.72404 4.22835 9.5001 4.50449 9.5L9.28943 9.49826L7.64365 7.85248C7.44839 7.65721 7.44839 7.34063 7.64365 7.14537C7.83891 6.95011 8.15549 6.95011 8.35076 7.14537L10.85 9.64463C11.0453 9.83989 11.0453 10.1565 10.85 10.3517L8.35076 12.851C8.15549 13.0463 7.83891 13.0463 7.64365 12.851C7.44839 12.6557 7.44839 12.3391 7.64365 12.1439L9.28928 10.4983L4.50485 10.5C4.22871 10.5001 4.00477 10.2763 4.00467 10.0002Z" fill="#0067CC"/>
    <path fill-rule="evenodd" clip-rule="evenodd" d="M17.25 18C18.7688 18 20 16.7688 20 15.25L20 4.75C20 3.23122 18.7688 2 17.25 2H2.75C1.23122 2 0 3.23122 0 4.75V15.25C0 16.7688 1.23122 18 2.75 18L17.25 18ZM13.0017 3.5L2.75 3.5C2.05965 3.5 1.5 4.05964 1.5 4.75L1.5 15.25C1.5 15.9404 2.05964 16.5 2.75 16.5L13.0017 16.5L13.0017 3.5Z" fill="#0067CC"/>
  </g>
  <defs>
    <clipPath id="clip0_5064_1178">
      <rect width="20" height="20" fill="white"/>
    </clipPath>
  </defs>
</svg>