<svg width="24" height="24" viewBox="0 0 24 24" fill="none" xmlns="http://www.w3.org/2000/svg">
<path fill-rule="evenodd" clip-rule="evenodd" d="M20.3125 12C20.3125 16.5909 16.5909 20.3125 12 20.3125C7.40913 20.3125 3.6875 16.5909 3.6875 12C3.6875 7.40913 7.40913 3.6875 12 3.6875C16.5909 3.6875 20.3125 7.40913 20.3125 12ZM21.5 12C21.5 17.2467 17.2467 21.5 12 21.5C6.75329 21.5 2.5 17.2467 2.5 12C2.5 6.75329 6.75329 2.5 12 2.5C17.2467 2.5 21.5 6.75329 21.5 12ZM12.9528 8.2029C14.0021 8.2029 14.8528 7.35224 14.8528 6.3029C14.8528 5.25356 14.0021 4.4029 12.9528 4.4029C11.9034 4.4029 11.0528 5.25356 11.0528 6.3029C11.0528 7.35224 11.9034 8.2029 12.9528 8.2029ZM18.5636 11.0542V11.2445C18.5636 11.5416 18.6375 11.8684 18.7962 12.273C18.8881 12.5071 18.9347 12.7533 18.9347 13.0049C18.9347 14.1303 18.0191 15.0459 16.8937 15.0459C15.7682 15.0459 14.8526 14.1303 14.8526 13.0049C14.8526 12.7533 14.8992 12.5071 14.9911 12.273C15.1498 11.8685 15.2237 11.5416 15.2237 11.2446V11.0542C15.2237 10.7571 15.1498 10.4304 14.9911 10.0258C14.8992 9.79166 14.8526 9.54544 14.8526 9.29392C14.8526 8.1685 15.7682 7.2529 16.8937 7.2529C18.0191 7.2529 18.9347 8.1685 18.9347 9.29392C18.9347 9.54544 18.8881 9.79166 18.7962 10.0258C18.6375 10.4303 18.5636 10.7571 18.5636 11.0542ZM17.8214 13.0049C17.8214 12.8931 17.8007 12.7837 17.7599 12.6796C17.5486 12.1413 17.4503 11.6853 17.4503 11.2446V11.0542C17.4503 10.6135 17.5486 10.1575 17.7599 9.61918C17.8007 9.51509 17.8214 9.40569 17.8214 9.29392C17.8214 8.78236 17.4052 8.36618 16.8937 8.36618C16.3821 8.36618 15.9659 8.78236 15.9659 9.29392C15.9659 9.40569 15.9866 9.51509 16.0274 9.61914C16.2387 10.1575 16.337 10.6135 16.337 11.0542V11.2445C16.337 11.6853 16.2386 12.1413 16.0274 12.6796C15.9866 12.7837 15.9659 12.8931 15.9659 13.0049C15.9659 13.5164 16.3821 13.9326 16.8937 13.9326C17.4052 13.9326 17.8214 13.5164 17.8214 13.0049ZM8.24166 11.2903C8.00853 11.1558 7.7186 11.0657 7.32917 11.007C7.10385 10.973 6.88953 10.898 6.69213 10.784C5.80893 10.2741 5.50525 9.14078 6.01517 8.25758C6.52509 7.37438 7.65842 7.07071 8.54162 7.58062C8.73901 7.69456 8.91112 7.84266 9.05324 8.02084C9.29881 8.32873 9.52175 8.53479 9.7549 8.66939L9.90427 8.75564C10.1374 8.89021 10.4273 8.98026 10.8168 9.03901C11.0421 9.07298 11.2564 9.14798 11.4538 9.26195C12.337 9.77186 12.6407 10.9052 12.1308 11.7884C11.6208 12.6716 10.4875 12.9753 9.60432 12.4654C9.40693 12.3514 9.23481 12.2033 9.09269 12.0251C8.84713 11.7173 8.62418 11.5112 8.39104 11.3766L8.24166 11.2903ZM8.03719 8.45428C7.63575 8.22248 7.1206 8.36052 6.88881 8.76198C6.65706 9.16344 6.79509 9.67859 7.19652 9.91035C7.28424 9.961 7.37948 9.99435 7.47964 10.0094C7.99778 10.0876 8.4002 10.217 8.74606 10.4167L8.89544 10.5029C9.24131 10.7026 9.5546 10.9864 9.88135 11.3961C9.94452 11.4753 10.021 11.5411 10.1087 11.5917C10.5101 11.8235 11.0253 11.6854 11.2571 11.284C11.4889 10.8826 11.3508 10.3674 10.9494 10.1356C10.8617 10.085 10.7664 10.0516 10.6663 10.0366C10.1481 9.9584 9.74571 9.82898 9.39984 9.62929L9.25046 9.54305C8.9046 9.34336 8.5913 9.05958 8.26455 8.64993C8.20138 8.57074 8.12491 8.50492 8.03719 8.45428ZM7.64407 14.0985C7.64407 14.7313 7.13114 15.2442 6.49842 15.2442C5.86569 15.2442 5.35277 14.7313 5.35277 14.0985C5.35277 13.4658 5.86569 12.9529 6.49842 12.9529C7.13114 12.9529 7.64407 13.4658 7.64407 14.0985ZM14.0747 15.9216H14.6969C15.0043 15.9216 15.2536 16.1709 15.2536 16.4783C15.2536 16.7857 15.0043 17.0349 14.6969 17.0349H14.0747C14.0144 17.2889 13.9143 17.5276 13.7806 17.7436L14.2209 18.1839C14.4383 18.4013 14.4383 18.7537 14.2209 18.9711C14.0036 19.1885 13.6511 19.1885 13.4337 18.9711L12.9934 18.5308C12.7774 18.6644 12.5387 18.7646 12.2848 18.8249V19.447C12.2848 19.7545 12.0355 20.0037 11.7281 20.0037C11.4207 20.0037 11.1715 19.7545 11.1715 19.447V18.8249C10.9175 18.7646 10.6789 18.6644 10.4628 18.5308L10.0225 18.9711C9.80511 19.1885 9.45269 19.1885 9.2353 18.9711C9.01791 18.7537 9.01791 18.4013 9.2353 18.1839L9.67564 17.7436C9.54201 17.5276 9.44185 17.2889 9.38159 17.0349H8.75941C8.45199 17.0349 8.20277 16.7857 8.20277 16.4783C8.20277 16.1709 8.45199 15.9216 8.75941 15.9216H9.38159C9.44185 15.6676 9.54201 15.429 9.67568 15.213L9.23534 14.7727C9.01795 14.5553 9.01795 14.2029 9.23534 13.9855C9.45272 13.7681 9.80515 13.7681 10.0225 13.9855L10.4629 14.4258C10.6789 14.2921 10.9175 14.192 11.1715 14.1317V13.5095C11.1715 13.2021 11.4207 12.9529 11.7282 12.9529C12.0356 12.9529 12.2848 13.2021 12.2848 13.5095V14.1317C12.5388 14.192 12.7774 14.2921 12.9934 14.4258L13.4338 13.9855C13.6512 13.7681 14.0036 13.7681 14.221 13.9855C14.4384 14.2029 14.4384 14.5553 14.221 14.7727L13.7806 15.213C13.9143 15.429 14.0145 15.6677 14.0747 15.9216Z" fill="black"/>
</svg>
