<svg width="24" height="24" viewBox="0 0 24 24" fill="none" xmlns="http://www.w3.org/2000/svg">
<path d="M15.7476 3C16.9898 3 17.9968 4.00736 17.9968 5.25L17.9963 6.003L18.7466 6.00358C20.5403 6.00533 21.994 7.45877 21.9967 9.25244L22 15.2497C22.0019 16.4918 20.9953 17.5002 19.7528 17.5009L17.9943 17.5V18.75C17.9943 19.9926 16.9873 21 15.7451 21H8.24778C7.00558 21 5.99858 19.9926 5.99858 18.75L5.99949 17.5L4.2492 17.5001C3.007 17.5001 2 16.4927 2 15.2501V9.25358C2 7.45865 3.45456 6.00358 5.24885 6.00358L5.99758 6.003L5.99858 5.25C5.99858 4.00736 7.00558 3 8.24778 3H15.7476ZM15.7451 13.5H8.24778C7.83372 13.5 7.49805 13.8358 7.49805 14.25V18.75C7.49805 19.1642 7.83372 19.5 8.24778 19.5H15.7451C16.1592 19.5 16.4949 19.1642 16.4949 18.75V14.25C16.4949 13.8358 16.1592 13.5 15.7451 13.5ZM18.7458 7.50358H5.24885C4.28269 7.50358 3.49947 8.28708 3.49947 9.25358V15.2501C3.49947 15.6643 3.83514 16.0001 4.2492 16.0001L5.99858 16V14.25C5.99858 13.0074 7.00558 12 8.24778 12H15.7451C16.9873 12 17.9943 13.0074 17.9943 14.25L17.9952 16.0001L19.7764 16.0005C20.1791 15.9874 20.5011 15.6567 20.5005 15.2512L20.4973 9.25398C20.4958 8.28801 19.7122 7.50452 18.7458 7.50358ZM15.7476 4.5H8.24778C7.83372 4.5 7.49805 4.83579 7.49805 5.25L7.49705 6.003H16.4969L16.4974 5.25C16.4974 4.83579 16.1617 4.5 15.7476 4.5Z" fill="black"/>
</svg>
