<svg width="24" height="24" viewBox="0 0 24 24" fill="none" xmlns="http://www.w3.org/2000/svg">
<path fill-rule="evenodd" clip-rule="evenodd" d="M20.7167 3.5C20.7167 2.94772 20.2662 2.5 19.7139 2.5C19.1616 2.5 18.7111 2.94772 18.7111 3.5V5.95486C17.8098 4.96346 16.6907 4.17693 15.4281 3.66434C13.3757 2.8311 11.0877 2.77995 8.99999 3.52063C6.91226 4.26131 5.17074 5.74205 4.10728 7.68072C3.04381 9.61938 2.73273 11.8805 3.23331 14.0331C3.73389 16.1858 5.01113 18.0795 6.82168 19.3536C8.63223 20.6276 10.8495 21.1929 13.0511 20.9416C15.2526 20.6904 17.2845 19.6403 18.7597 17.9913C20.0106 16.5929 20.787 14.8468 20.9941 13.0007C21.0559 12.4504 20.6011 12 20.0473 12C19.4935 12 19.0519 12.4513 18.9726 12.9994C18.7768 14.3532 18.186 15.6283 17.2631 16.6599C16.1158 17.9424 14.5354 18.7592 12.8231 18.9546C11.1107 19.15 9.38618 18.7104 7.97798 17.7194C6.56978 16.7285 5.57637 15.2556 5.18703 13.5813C4.79769 11.907 5.03964 10.1484 5.86678 8.64056C6.69392 7.13271 8.04843 5.98102 9.67223 5.40493C11.296 4.82885 13.0756 4.86863 14.6719 5.51671C15.738 5.94957 16.6727 6.63358 17.4019 7.5H14.7C14.1477 7.5 13.7 7.94772 13.7 8.5C13.7 9.05228 14.1477 9.5 14.7 9.5H19.7167C20.269 9.5 20.7167 9.05228 20.7167 8.5V3.5Z" fill="black"/>
</svg>
