<svg width="24" height="24" viewBox="0 0 24 24" fill="none" xmlns="http://www.w3.org/2000/svg">
<path fill-rule="evenodd" clip-rule="evenodd" d="M11.8577 3.45722C13.5319 1.78298 15.932 1.27966 18.041 1.94238C18.897 2.21136 19.0533 3.25051 18.4924 3.81138L15.4089 6.89494C15.1584 7.14547 15.0692 7.51521 15.1781 7.85239C15.3256 8.30942 15.6839 8.66766 16.1409 8.8152C16.4781 8.92406 16.8478 8.83492 17.0983 8.58438L20.1819 5.50083C20.7428 4.93995 21.7819 5.09631 22.0509 5.9523C22.7136 8.06132 22.2103 10.4614 20.5361 12.1356C19.0643 13.6073 17.0315 14.1743 15.1291 13.8398L7.6661 21.3028C6.29213 22.6767 4.06448 22.6767 2.69051 21.3028C1.31654 19.9288 1.31654 17.7011 2.69051 16.3272L10.1535 8.86418C9.81901 6.96178 10.386 4.92893 11.8577 3.45722ZM16.2974 3.46088C15.1534 3.43451 14.0023 3.85821 13.1305 4.73001C11.9963 5.86421 11.6205 7.47087 12.0076 8.92023L12.1415 9.42177L3.96331 17.6C3.29228 18.271 3.29228 19.3589 3.96331 20.03C4.63433 20.701 5.72228 20.701 6.39331 20.03L14.5715 11.8518L15.073 11.9857C16.5224 12.3728 18.1291 11.997 19.2633 10.8628C20.1351 9.99102 20.5588 8.83988 20.5324 7.69591L18.3711 9.85717C17.6428 10.5855 16.568 10.8446 15.5879 10.5282C14.5803 10.2029 13.7904 9.41302 13.4651 8.40539C13.1487 7.42524 13.4078 6.35044 14.1361 5.62214L16.2974 3.46088Z" fill="black"/>
</svg>
