<svg width="24" height="24" viewBox="0 0 24 24" fill="none" xmlns="http://www.w3.org/2000/svg">
<path fill-rule="evenodd" clip-rule="evenodd" d="M10.4342 3.03125V3.90625H13.5658V3.03125H10.4342ZM9.91228 1.5C9.3864 1.5 8.95135 1.88029 8.87899 2.375H4.54386C3.96735 2.375 3.5 2.83204 3.5 3.39583V21.4792C3.5 22.043 3.96735 22.5 4.54386 22.5H19.4561C20.0326 22.5 20.5 22.043 20.5 21.4792V3.39583C20.5 2.83204 20.0326 2.375 19.4561 2.375H15.121C15.0486 1.88029 14.6136 1.5 14.0877 1.5H9.91228ZM15.1316 4.41667V3.90625H18.9342V20.9688H5.06579V3.90625H8.86842V4.41667C8.86842 4.98046 9.33577 5.4375 9.91228 5.4375H14.0877C14.6642 5.4375 15.1316 4.98046 15.1316 4.41667ZM12.8947 8.20833C12.8947 7.64454 13.3621 7.1875 13.9386 7.1875H16.7719C17.3484 7.1875 17.8158 7.64454 17.8158 8.20833V10.9792C17.8158 11.543 17.3484 12 16.7719 12H13.9386C13.3621 12 12.8947 11.543 12.8947 10.9792V8.20833ZM14.4605 16.1562H16.25V17.9062H14.4605V16.1562ZM12.8947 15.6458C12.8947 15.082 13.3621 14.625 13.9386 14.625H16.7719C17.3484 14.625 17.8158 15.082 17.8158 15.6458V18.4167C17.8158 18.9805 17.3484 19.4375 16.7719 19.4375H13.9386C13.3621 19.4375 12.8947 18.9805 12.8947 18.4167V15.6458ZM6.85526 9.375C6.48465 9.375 6.18421 9.66881 6.18421 10.0313C6.18421 10.3937 6.48465 10.6875 6.85526 10.6875H7.97368V11.7812C7.97368 12.1437 8.27413 12.4375 8.64474 12.4375C9.01535 12.4375 9.31579 12.1437 9.31579 11.7812V10.6875H10.4342C10.8048 10.6875 11.1053 10.3937 11.1053 10.0313C11.1053 9.66881 10.8048 9.375 10.4342 9.375H9.31579V8.28125C9.31579 7.91881 9.01535 7.625 8.64474 7.625C8.27413 7.625 7.97368 7.91881 7.97368 8.28125V9.375H6.85526ZM6.18421 17.0312C6.18421 16.6688 6.48465 16.375 6.85526 16.375H10.4342C10.8048 16.375 11.1053 16.6688 11.1053 17.0312C11.1053 17.3937 10.8048 17.6875 10.4342 17.6875H6.85526C6.48465 17.6875 6.18421 17.3937 6.18421 17.0312Z" fill="black"/>
</svg>
