<svg width="24" height="24" viewBox="0 0 24 24" fill="none" xmlns="http://www.w3.org/2000/svg">
<path fill-rule="evenodd" clip-rule="evenodd" d="M6.71531 4.47678C6.71531 3.10889 7.8242 2 9.19209 2H14.8711C15.3637 2 15.8362 2.19571 16.1846 2.54407L21.0319 7.3914C21.3803 7.73976 21.576 8.21225 21.576 8.70491V18.2848C21.576 19.6527 20.4671 20.7616 19.0992 20.7616H16.9851C17.2992 20.3813 17.5728 19.9663 17.7993 19.5232H19.0992C19.7832 19.5232 20.3376 18.9688 20.3376 18.2848V9.43034H16.0032C14.9773 9.43034 14.1456 8.59867 14.1456 7.57276V3.23839H9.19209C8.50814 3.23839 7.9537 3.79284 7.9537 4.47678V10.7491C7.52842 10.7875 7.11442 10.8649 6.71531 10.9777V4.47678ZM16.0032 8.19195H20.0811L15.384 3.49487V7.57276C15.384 7.91473 15.6613 8.19195 16.0032 8.19195ZM7.78948 12.5263C8.16736 12.5263 8.47369 12.8291 8.47369 13.2026C8.47369 13.5345 8.23165 13.8107 7.91247 13.8679L7.78948 13.8788C5.90008 13.8788 4.36842 15.3926 4.36842 17.26C4.36842 19.0528 5.78 20.5196 7.56454 20.6341L7.78948 20.6413C8.16736 20.6413 8.47369 20.944 8.47369 21.3175C8.47369 21.6495 8.23165 21.9256 7.91247 21.9829L7.78948 21.9938C5.14432 21.9938 3 19.8744 3 17.26C3 14.7328 5.00375 12.6682 7.52669 12.5333L7.78948 12.5263ZM11.8947 12.5263C14.5399 12.5263 16.6842 14.6457 16.6842 17.26C16.6842 19.7873 14.6805 21.8519 12.1604 21.9868L11.8979 21.9938V22C11.52 22.0017 11.2123 21.7003 11.2105 21.3268C11.209 20.9949 11.4498 20.7177 11.7687 20.659L11.8916 20.6475L11.8947 20.6413C13.7841 20.6413 15.3158 19.1275 15.3158 17.26C15.3158 15.4673 13.9042 14.0005 12.1197 13.886L11.8947 13.8788C11.5169 13.8788 11.2105 13.576 11.2105 13.2026C11.2105 12.8706 11.4526 12.5945 11.7718 12.5372L11.8947 12.5263ZM7.78979 16.5838L11.8951 16.5869C12.2729 16.5871 12.5791 16.89 12.579 17.2635C12.5788 17.5954 12.3366 17.8714 12.0174 17.9286L11.8944 17.9394L7.78916 17.9363C7.41128 17.9361 7.10509 17.6332 7.10527 17.2597C7.10542 16.9278 7.34759 16.6518 7.6668 16.5946L7.78979 16.5838Z" fill="black"/>
</svg>
