<svg width="24" height="24" viewBox="0 0 24 24" fill="none" xmlns="http://www.w3.org/2000/svg">
<path fill-rule="evenodd" clip-rule="evenodd" d="M9.21146 1.20503C9.48805 0.931658 9.9365 0.931658 10.2131 1.20503L12.9676 3.92738C13.2442 4.20075 13.2442 4.64397 12.9676 4.91733L10.2131 7.63969C9.9365 7.91306 9.48805 7.91306 9.21146 7.63969C8.93487 7.36633 8.93487 6.92311 9.21146 6.64974L10.6593 5.21876C6.61228 5.49671 3.41651 8.8295 3.41651 12.9C3.41651 17.1526 6.90459 20.6 11.2073 20.6C15.5101 20.6 18.9982 17.1526 18.9982 12.9C18.9982 12.5134 19.3153 12.2 19.7064 12.2C20.0976 12.2 20.4147 12.5134 20.4147 12.9C20.4147 17.9258 16.2924 22 11.2073 22C6.12227 22 2 17.9258 2 12.9C2 7.99497 5.92656 3.99634 10.8425 3.80702L9.21146 2.19497C8.93487 1.92161 8.93487 1.47839 9.21146 1.20503ZM17.7683 3.43241L9.06492 12.0343C9.02514 12.0736 8.99754 12.1233 8.98534 12.1776L8.24383 15.4754C8.13137 15.9756 8.58282 16.4218 9.08887 16.3106L12.4256 15.5777C12.4805 15.5657 12.5308 15.5384 12.5706 15.4991L21.274 6.89723C21.8875 6.29079 22.1122 5.44552 21.948 4.66417C21.8531 4.21279 21.6284 3.78275 21.274 3.43241C20.3059 2.47562 18.7363 2.47562 17.7683 3.43241ZM17.2674 5.90728L18.7699 7.3922L11.7998 14.2811L9.86805 14.7053L10.2973 12.7961L17.2674 5.90728ZM18.2691 4.91733L19.7715 6.40226L20.2723 5.90728C20.6872 5.49723 20.6872 4.83241 20.2723 4.42236C19.8574 4.01231 19.1848 4.01231 18.7699 4.42236L18.2691 4.91733Z" fill="black"/>
</svg>
