<svg width="24" height="24" viewBox="0 0 24 24" fill="none" xmlns="http://www.w3.org/2000/svg">
<path d="M15.6259 11.4426C15.6259 12.0799 15.0857 12.5966 14.4193 12.5966C13.7529 12.5966 13.2127 12.0799 13.2127 11.4426C13.2127 10.8053 13.7529 10.2886 14.4193 10.2886C15.0857 10.2886 15.6259 10.8053 15.6259 11.4426Z" fill="black"/>
<path d="M3.56006 5.50585C3.56006 4.6312 4.2691 3.92216 5.14374 3.92216H9.59269V5.50584H5.14374L5.14374 18.4942L9.59269 18.4942V20.0778L5.14374 20.0778C4.2691 20.0778 3.56006 19.3688 3.56006 18.4942V5.50585Z" fill="black"/>
<path fill-rule="evenodd" clip-rule="evenodd" d="M14.4193 12.5966C15.0857 12.5966 15.6259 12.0799 15.6259 11.4426C15.6259 10.8053 15.0857 10.2886 14.4193 10.2886C13.7529 10.2886 13.2127 10.8053 13.2127 11.4426C13.2127 12.0799 13.7529 12.5966 14.4193 12.5966Z" fill="black"/>
<path fill-rule="evenodd" clip-rule="evenodd" d="M10.8082 3.92217L10.8 19.9159C10.8 20.9024 11.6922 21.6488 12.6632 21.4747L19.1488 20.3117C19.9036 20.1764 20.453 19.5197 20.453 18.7529V5.24712C20.453 4.4803 19.9036 3.82365 19.1488 3.6883L12.6632 2.52531C11.7461 2.36085 10.8993 3.01759 10.8082 3.92217ZM18.8693 5.24712V18.7529L12.3837 19.9159V4.08413L18.8693 5.24712Z" fill="black"/>
</svg>
