<svg width="24" height="24" viewBox="0 0 24 24" fill="none" xmlns="http://www.w3.org/2000/svg">
<path fill-rule="evenodd" clip-rule="evenodd" d="M9.60654 14.1132L11.2059 15.7578L12.2451 14.6892L10.6457 13.0446L9.60654 14.1132ZM20.8638 5.827L13.1679 13.7404L11.5685 12.0958L19.2644 4.18241C19.7061 3.72827 20.4222 3.72827 20.8638 4.18241C21.3055 4.63655 21.3055 5.37286 20.8638 5.827ZM8.00232 13.8651C7.86909 14.0021 7.86909 14.2243 8.00232 14.3613L8.22245 14.5876L1.5 21.5L5.69867 21.3123C6.51411 21.2758 7.28663 20.9264 7.86378 20.3329L10.8368 17.2759L10.9647 17.4073C11.0979 17.5443 11.3139 17.5443 11.4472 17.4073L21.7865 6.7758C22.7378 5.79765 22.7378 4.21176 21.7865 3.23361C20.8353 2.25546 19.293 2.25546 18.3417 3.23361L8.00232 13.8651ZM5.64198 19.9718L4.79488 20.0096L9.10786 15.5748L9.8768 16.3654L6.94105 19.3841C6.59476 19.7402 6.13125 19.9499 5.64198 19.9718Z" fill="black"/>
</svg>
