<svg width="24" height="24" viewBox="0 0 24 24" fill="none" xmlns="http://www.w3.org/2000/svg">
<path d="M9.75086 4.5L9.64909 4.50685C9.28301 4.55651 9.00086 4.8703 9.00086 5.25L9 17.942L5.78011 14.7244L5.69596 14.6518C5.40226 14.4341 4.9856 14.4585 4.71945 14.7248C4.42668 15.0179 4.42688 15.4927 4.71989 15.7855L9.22365 20.2855L9.3078 20.3581C9.6015 20.5758 10.0182 20.5514 10.2843 20.2851L14.7806 15.7851L14.8531 15.7009C15.0709 15.4072 15.0465 14.9905 14.7801 14.7244L14.696 14.6518C14.4023 14.4341 13.9856 14.4585 13.7194 14.7248L10.5 17.946L10.5009 5.25L10.494 5.14823C10.4444 4.78215 10.1306 4.5 9.75086 4.5ZM13.25 5C12.8358 5 12.5 5.33579 12.5 5.75C12.5 6.16421 12.8358 6.5 13.25 6.5H21.25C21.6642 6.5 22 6.16421 22 5.75C22 5.33579 21.6642 5 21.25 5H13.25ZM12.5 8.75C12.5 8.33579 12.8358 8 13.25 8H18.25C18.6642 8 19 8.33579 19 8.75C19 9.16421 18.6642 9.5 18.25 9.5H13.25C12.8358 9.5 12.5 9.16421 12.5 8.75ZM13.25 11C12.8358 11 12.5 11.3358 12.5 11.75C12.5 12.1642 12.8358 12.5 13.25 12.5H15.25C15.6642 12.5 16 12.1642 16 11.75C16 11.3358 15.6642 11 15.25 11H13.25Z" fill="black"/>
</svg>
