<svg width="24" height="24" viewBox="0 0 24 24" fill="none" xmlns="http://www.w3.org/2000/svg">
<path d="M11.8495 14.6776C12.0036 15.0831 12.3923 15.3511 12.8261 15.3511C13.5624 15.3511 14.0677 14.6097 13.7983 13.9243L9.21592 2.26667C8.9946 1.70362 8.45124 1.33337 7.84625 1.33337C7.24126 1.33337 6.69791 1.70362 6.47658 2.26667L1.8931 13.9272C1.62425 14.6112 2.12847 15.3511 2.86338 15.3511C3.29852 15.3511 3.6879 15.0809 3.84009 14.6732L4.79469 12.1163H10.8762L11.8495 14.6776ZM5.61419 9.9597L7.84625 4.00753L10.0783 9.9597H5.61419ZM22.7215 11.3563C22.3015 10.9363 21.6206 10.9363 21.2007 11.3563L13.2377 19.3193L10.0401 16.1129C9.62066 15.6924 8.93963 15.6919 8.51966 16.1119C8.10011 16.5314 8.10011 17.2117 8.51966 17.6312L12.549 21.6605C12.9353 22.0468 13.5616 22.0466 13.9476 21.6602L22.7219 12.8767C23.1414 12.4567 23.1413 11.7761 22.7215 11.3563Z" fill="black"/>
</svg>
