<svg width="24" height="24" viewBox="0 0 24 24" fill="none" xmlns="http://www.w3.org/2000/svg">
<g id="Icon">
<path id="Vector (Stroke)" fill-rule="evenodd" clip-rule="evenodd" d="M3.00462 8.28922C3.12155 5.32754 5.06127 3 7.8158 3C9.16707 3 10.0378 3.38048 10.7079 3.74465C10.8376 3.81517 10.9457 3.87652 11.0423 3.93132C11.2087 4.0257 11.3408 4.10065 11.4901 4.16958C11.692 4.26278 11.8444 4.302 12 4.302C12.1561 4.302 12.3087 4.2627 12.5108 4.16951C12.6603 4.10053 12.7926 4.02545 12.9593 3.9309C13.0558 3.8762 13.1637 3.81498 13.2931 3.74465C13.963 3.38054 14.8335 3 16.1842 3C18.9385 3 20.8798 5.32726 20.9954 8.28958C21.0654 10.081 20.3294 13.1781 19.2498 15.7917C18.7055 17.1095 18.0509 18.362 17.3237 19.2994C16.6302 20.1933 15.7157 21.0001 14.6218 21.0001C13.9291 21.0001 13.3738 20.7461 12.9864 20.2854C12.631 19.8627 12.4757 19.3344 12.3939 18.8815C12.3173 18.4578 12.2911 18.0093 12.2696 17.6419C12.2679 17.6116 12.2661 17.5819 12.2644 17.5527C12.239 17.1253 12.2151 16.8672 12.169 16.7183C12.1571 16.6801 12.143 16.6441 12.1269 16.6129C12.1106 16.5815 12.0961 16.5624 12.0862 16.552C12.0779 16.5433 12.0736 16.5412 12.0709 16.5401C12.0687 16.5391 12.0492 16.5304 12 16.5304C11.9508 16.5304 11.9314 16.539 11.9291 16.54C11.9265 16.5412 11.9221 16.5433 11.9138 16.552C11.9039 16.5624 11.8894 16.5815 11.8731 16.6129C11.8569 16.6443 11.8428 16.6805 11.8308 16.7189C11.7847 16.8673 11.761 17.1243 11.7356 17.5523C11.7339 17.5814 11.7321 17.6112 11.7304 17.6415C11.7089 18.0089 11.6827 18.4573 11.6061 18.881C11.5243 19.334 11.369 19.8623 11.0136 20.2851C10.6263 20.7459 10.071 21.0001 9.37815 21.0001C8.28428 21.0001 7.36977 20.1933 6.67629 19.2994C5.94908 18.362 5.29453 17.1095 4.7502 15.7917C3.6706 13.178 2.93454 10.0806 3.00462 8.28922ZM4.5463 8.34981C4.63962 5.98879 6.09975 4.54287 7.8158 4.54287C8.8287 4.54287 9.44335 4.81339 9.97106 5.10022C10.0436 5.13967 10.1239 5.18506 10.2086 5.23291C10.4105 5.34702 10.6372 5.47518 10.8435 5.57042C11.1705 5.72134 11.549 5.84487 12 5.84487C12.4512 5.84487 12.8299 5.72142 13.1571 5.57049C13.3638 5.47512 13.5907 5.34684 13.7928 5.23264C13.8773 5.1849 13.9574 5.13961 14.0299 5.10022C14.5577 4.81333 15.172 4.54287 16.1842 4.54287C17.9006 4.54287 19.3616 5.98919 19.4537 8.34972C19.5112 9.81977 18.8669 12.6772 17.8238 15.2027C17.3067 16.4545 16.7143 17.5678 16.1047 18.3537C15.4613 19.1831 14.949 19.4573 14.6218 19.4573C14.3408 19.4573 14.2345 19.3723 14.1673 19.2924C14.0682 19.1745 13.976 18.9606 13.9121 18.6071C13.8528 18.279 13.8316 17.9194 13.8087 17.5313C13.8073 17.508 13.8059 17.4847 13.8046 17.4612L13.804 17.4517C13.7821 17.0837 13.7547 16.6224 13.6424 16.2604L13.642 16.2593C13.5825 16.0686 13.461 15.7587 13.2041 15.4887C12.9256 15.1958 12.522 14.9876 12 14.9876C11.478 14.9876 11.0744 15.1958 10.7959 15.4887C10.539 15.7587 10.4175 16.0686 10.358 16.2593C10.2455 16.6211 10.2179 17.0832 10.196 17.4511L10.1954 17.4607C10.194 17.4842 10.1927 17.5076 10.1913 17.5309C10.1684 17.919 10.1471 18.2785 10.0879 18.6067C10.024 18.9603 9.93176 19.1744 9.83258 19.2924C9.76537 19.3723 9.65908 19.4573 9.37815 19.4573C9.05102 19.4573 8.53874 19.1831 7.89535 18.3537C7.28568 17.5678 6.69325 16.4545 6.17621 15.2027C5.13312 12.6774 4.48888 9.81993 4.5463 8.34981Z" fill="black"/>
</g>
</svg>
