<svg width="24" height="24" viewBox="0 0 24 24" fill="none" xmlns="http://www.w3.org/2000/svg">
<path fill-rule="evenodd" clip-rule="evenodd" d="M9.70711 3.70711C10.0976 3.31658 10.0976 2.68342 9.70711 2.29289C9.31658 1.90237 8.68342 1.90237 8.29289 2.29289L3.29289 7.29289C2.90237 7.68342 2.90237 8.31658 3.29289 8.70711L8.29289 13.7071C8.68342 14.0976 9.31658 14.0976 9.70711 13.7071C10.0976 13.3166 10.0976 12.6834 9.70711 12.2929L6.41421 9H14C17.0339 9 19.5 11.321 19.5 14C19.5 16.679 17.0339 19 14 19H6.86667C6.31438 19 5.86667 19.4477 5.86667 20C5.86667 20.5523 6.31438 21 6.86667 21H14C17.9661 21 21.5 17.9484 21.5 14C21.5 10.0516 17.9661 7 14 7H6.41421L9.70711 3.70711Z" fill="black"/>
</svg>
