<svg width="24" height="24" viewBox="0 0 24 24" fill="none" xmlns="http://www.w3.org/2000/svg">
<path fill-rule="evenodd" clip-rule="evenodd" d="M18 3.5H6C4.34315 3.5 3.5 4.34315 3.5 6V18C3.5 19.6569 4.34315 20.5 6 20.5H18C19.6569 20.5 20.5 19.6569 20.5 18V6C20.5 4.34315 19.6569 3.5 18 3.5ZM6 2C3.79086 2 2 3.79086 2 6V18C2 20.2091 3.79086 22 6 22H18C20.2091 22 22 20.2091 22 18V6C22 3.79086 20.2091 2 18 2H6ZM14.1 5C13.2163 5 12.5 5.71635 12.5 6.6V17.4C12.5 18.2837 13.2163 19 14.1 19H17.4C18.2837 19 19 18.2837 19 17.4V6.6C19 5.71634 18.2837 5 17.4 5H14.1Z" fill="black"/>
</svg>
