<svg width="24" height="24" viewBox="0 0 24 24" fill="none" xmlns="http://www.w3.org/2000/svg">
<path fill-rule="evenodd" clip-rule="evenodd" d="M6 3H18C19.6569 3 21 4.34315 21 6V18C21 19.6569 19.6569 21 18 21H6C4.34315 21 3 19.6569 3 18V6C3 4.34315 4.34315 3 6 3ZM2 6C2 3.79086 3.79086 2 6 2H18C20.2091 2 22 3.79086 22 6V18C22 20.2091 20.2091 22 18 22H6C3.79086 22 2 20.2091 2 18V6ZM5 7C5 5.89543 5.89543 5 7 5H11.5V19H7C5.89543 19 5 18.1046 5 17V7ZM12.5 5H17C18.1046 5 19 5.89543 19 7V17C19 18.1046 18.1046 19 17 19H12.5V5Z" fill="black"/>
</svg>
