<svg width="24" height="24" viewBox="0 0 24 24" fill="none" xmlns="http://www.w3.org/2000/svg">
<path fill-rule="evenodd" clip-rule="evenodd" d="M19 4.5H9C8.72386 4.5 8.5 4.72386 8.5 5V7H15C16.1046 7 17 7.89543 17 9V15.5H19C19.2761 15.5 19.5 15.2761 19.5 15V5C19.5 4.72386 19.2761 4.5 19 4.5ZM17 17V19C17 20.1046 16.1046 21 15 21H5C3.89543 21 3 20.1046 3 19V9C3 7.89543 3.89543 7 5 7H7V5C7 3.89543 7.89543 3 9 3H19C20.1046 3 21 3.89543 21 5V15C21 16.1046 20.1046 17 19 17H17ZM5 8.5H15C15.2761 8.5 15.5 8.72386 15.5 9V19C15.5 19.2761 15.2761 19.5 15 19.5H5C4.72386 19.5 4.5 19.2761 4.5 19V9C4.5 8.72386 4.72386 8.5 5 8.5Z" fill="black"/>
</svg>
