<svg width="24" height="24" viewBox="0 0 24 24" fill="none" xmlns="http://www.w3.org/2000/svg">
<g clip-path="url(#clip0_11278_101061)">
<path fill-rule="evenodd" clip-rule="evenodd" d="M3 2.00003C2.44772 2.00003 2 2.44775 2 3.00003V21C2 21.5523 2.44772 22 3 22H13.8027C13.2922 21.1175 13 20.0929 13 19C13 15.6863 15.6863 13 19 13C20.0929 13 21.1175 13.2922 22 13.8027V3.00003C22 2.44775 21.5523 2.00003 21 2.00003H3Z" fill="#757575"/>
<path fill-rule="evenodd" clip-rule="evenodd" d="M3.5 20.5V3.50003H20.5V13.189C21.0322 13.326 21.5357 13.5341 22 13.8027V3.00003C22 2.44775 21.5523 2.00003 21 2.00003H3C2.44772 2.00003 2 2.44775 2 3.00003V21C2 21.5523 2.44772 22 3 22H13.8027C13.5341 21.5358 13.326 21.0322 13.189 20.5H3.5Z" fill="#CCCCCC"/>
<path fill-rule="evenodd" clip-rule="evenodd" d="M12.15 3.99995C11.791 3.99995 11.5 4.29097 11.5 4.64995V13.9985C10.836 13.6895 9.83363 13.35 8.5002 13.35C7.57552 13.35 6.73514 13.9125 6.3433 14.2358C6.12247 14.418 5.97287 14.6834 5.97169 14.9956C5.97058 15.2881 6.09976 15.5315 6.24783 15.7041L8.8814 18.7742C9.45782 19.4462 10.4618 19.5435 11.1566 18.9947L11.7832 18.4997C11.9104 18.3992 12.0899 18.3992 12.2171 18.4997L12.8508 19.0004C12.8994 19.0388 12.9495 19.074 13.0009 19.1061C13.0003 19.0708 13 19.0355 13 19C13 18.5153 13.0575 18.044 13.166 17.5926L13.023 17.4797C12.4234 17.006 11.577 17.0059 10.9774 17.4796L10.3507 17.9746C10.2034 18.091 9.99038 18.0704 9.86811 17.9278L7.409 15.0611C7.72904 14.8452 8.14065 14.65 8.5002 14.65C9.69209 14.65 10.5485 14.9756 11.0787 15.2382C11.2168 15.3066 11.3584 15.3548 11.5009 15.3853C11.5193 15.7279 11.8029 16 12.15 16C12.509 16 12.8 15.7089 12.8 15.35V15.2267C12.8323 15.212 12.864 15.1966 12.8952 15.1806C13.2659 14.9903 13.8955 14.7545 14.8399 14.6764C15.3197 14.2147 15.8761 13.832 16.4883 13.5494C16.1812 13.4299 15.8446 13.35 15.5 13.35C14.323 13.35 13.4358 13.5573 12.8 13.8019V12.2211L12.8721 12.2339C13.18 12.288 13.604 12.3533 14.0634 12.397C14.5196 12.4405 15.0285 12.4644 15.5011 12.4294C15.9525 12.396 16.4669 12.3032 16.8606 12.0408C17.1602 11.841 17.4545 11.5409 17.6532 11.3224C17.7577 11.2075 17.8462 11.1034 17.9089 11.0278C17.9403 10.9899 17.9655 10.9588 17.9831 10.9368L18.004 10.9106L18.0099 10.9031L18.0117 10.9008L18.0123 10.9L18.0126 10.8997L18.0126 10.8996C18.0127 10.8995 18.0127 10.8995 17.5 10.5L18.0127 10.8995C18.2334 10.6163 18.1827 10.2079 17.8995 9.98722C17.6164 9.7666 17.208 9.81726 16.9873 10.1004L16.9873 10.1004L16.987 10.1008L16.9837 10.105L16.9686 10.1239C16.9549 10.141 16.9343 10.1665 16.9079 10.1984C16.8548 10.2624 16.7795 10.3509 16.6915 10.4477C16.505 10.6527 16.2993 10.8525 16.1394 10.9591C16.0331 11.03 15.7975 11.1039 15.4051 11.133C15.034 11.1605 14.6054 11.1428 14.1866 11.1029C13.771 11.0633 13.3825 11.0036 13.0967 10.9535C12.977 10.9325 12.8762 10.9133 12.8 10.8982V4.64995C12.8 4.29097 12.509 3.99995 12.15 3.99995Z" fill="#E0E0E0"/>
<path d="M12.5 6.49995C12.5 6.49995 14.0735 6.80872 14.9995 6.49993C15.4136 6.36184 15.9995 5.99995 15.9995 5.99995" stroke="#E0E0E0" stroke-width="1.3" stroke-linecap="round"/>
<path d="M12.5 8.99995C12.5 8.99995 15.5 9.66662 16.5 8.99995C16.9595 8.6936 17.5 7.99995 17.5 7.99995" stroke="#E0E0E0" stroke-width="1.3" stroke-linecap="round"/>
<path d="M11.5 8.99995C11.5 8.99995 8.5 9.66662 7.5 8.99995C7.04047 8.6936 6.5 7.99995 6.5 7.99995" stroke="#E0E0E0" stroke-width="1.3" stroke-linecap="round"/>
<path d="M11.5 11.5C11.5 11.5 8.5 12.1666 7.5 11.5C7.04047 11.1936 6.5 10.5 6.5 10.5" stroke="#E0E0E0" stroke-width="1.3" stroke-linecap="round"/>
<path d="M11.5 6.49995C11.5 6.49995 9.92651 6.80872 9.00054 6.49993C8.58645 6.36184 8.00049 5.99995 8.00049 5.99995" stroke="#E0E0E0" stroke-width="1.3" stroke-linecap="round"/>
<path d="M19 14C21.7614 14 24 16.2386 24 19C24 21.7614 21.7614 24 19 24C16.2386 24 14 21.7614 14 19C14 16.2386 16.2386 14 19 14ZM20.6098 17.4848L18.375 19.7197L17.3902 18.7348C17.2437 18.5884 17.0063 18.5884 16.8598 18.7348C16.7134 18.8813 16.7134 19.1187 16.8598 19.2652L18.1098 20.5152C18.2563 20.6616 18.4937 20.6616 18.6402 20.5152L21.1402 18.0152C21.2866 17.8687 21.2866 17.6313 21.1402 17.4848C20.9937 17.3384 20.7563 17.3384 20.6098 17.4848Z" fill="#059E24"/>
</g>
<defs>
<clipPath id="clip0_11278_101061">
<rect width="24" height="24" fill="white"/>
</clipPath>
</defs>
</svg>
