<svg width="24" height="24" viewBox="0 0 24 24" fill="none" xmlns="http://www.w3.org/2000/svg">
<path fill-rule="evenodd" clip-rule="evenodd" d="M16.2355 4.10001H7.76446C6.95454 4.1 6.29578 4.09999 5.76115 4.14076C5.2099 4.1828 4.71473 4.27211 4.25149 4.49241C3.52323 4.83874 2.91946 5.39701 2.53701 6.09758C2.28982 6.55037 2.19048 7.03476 2.14428 7.56249C2.09995 8.06884 2.09996 8.69 2.09998 9.44038V14.5596C2.09996 15.31 2.09995 15.9312 2.14428 16.4375C2.19048 16.9653 2.28982 17.4496 2.53701 17.9024C2.91946 18.603 3.52323 19.1613 4.25149 19.5076C4.71473 19.7279 5.2099 19.8172 5.76115 19.8593C6.29577 19.9 6.95451 19.9 7.76441 19.9H16.2355C17.0454 19.9 17.7042 19.9 18.2388 19.8593C18.7901 19.8172 19.2852 19.7279 19.7485 19.5076C20.4767 19.1613 21.0805 18.603 21.4629 17.9024C21.7101 17.4496 21.8095 16.9653 21.8557 16.4375C21.9 15.9312 21.9 15.31 21.9 14.5596V9.44039C21.9 8.69001 21.9 8.06884 21.8557 7.56249C21.8095 7.03476 21.7101 6.55037 21.4629 6.09758C21.0805 5.39701 20.4767 4.83874 19.7485 4.49241C19.2852 4.27211 18.7901 4.1828 18.2388 4.14076C17.7042 4.09999 17.0454 4.1 16.2355 4.10001ZM5.02453 6.11796C5.20301 6.03308 5.44875 5.96981 5.89802 5.93555C6.3561 5.90062 6.94603 5.90001 7.79998 5.90001H16.2C17.0539 5.90001 17.6439 5.90062 18.1019 5.93555C18.5512 5.96981 18.7969 6.03308 18.9754 6.11796C19.3761 6.30853 19.6903 6.60694 19.883 6.96008C19.9628 7.10625 20.027 7.31337 20.0625 7.71946C20.0992 8.13803 20.1 8.68003 20.1 9.48001V14.52C20.1 15.32 20.0992 15.862 20.0625 16.2806C20.027 16.6866 19.9628 16.8938 19.883 17.0399C19.6903 17.3931 19.3761 17.6915 18.9754 17.8821C18.7969 17.9669 18.5512 18.0302 18.1019 18.0645C17.6439 18.0994 17.0539 18.1 16.2 18.1H7.79998C6.94603 18.1 6.3561 18.0994 5.89801 18.0645C5.44875 18.0302 5.20301 17.9669 5.02453 17.8821C4.62381 17.6915 4.30969 17.3931 4.11691 17.0399C4.03711 16.8938 3.97297 16.6866 3.93742 16.2806C3.90078 15.862 3.89998 15.32 3.89998 14.52V9.48001C3.89998 8.68003 3.90078 8.13803 3.93742 7.71946C3.97297 7.31337 4.03711 7.10625 4.11691 6.96008C4.30969 6.60695 4.62381 6.30853 5.02453 6.11796ZM19 13.75C19 13.3358 18.6642 13 18.25 13C17.8358 13 17.5 13.3358 17.5 13.75V15C17.5 15.2761 17.2761 15.5 17 15.5H15.75C15.3358 15.5 15 15.8358 15 16.25C15 16.6642 15.3358 17 15.75 17H17C18.1046 17 19 16.1046 19 15V13.75ZM6.49997 13.75C6.49997 13.3358 6.16418 13 5.74997 13C5.33576 13 4.99997 13.3358 4.99997 13.75V15C4.99997 16.1046 5.8954 17 6.99997 17H8.24997C8.66418 17 8.99997 16.6642 8.99997 16.25C8.99997 15.8358 8.66418 15.5 8.24997 15.5H6.99997C6.72383 15.5 6.49997 15.2761 6.49997 15V13.75ZM8.24997 7.00001H6.99997L6.85071 7.00549C5.81585 7.08184 4.99997 7.94565 4.99997 9.00001V10.25L5.00682 10.3518C5.05648 10.7179 5.37027 11 5.74997 11C6.16418 11 6.49997 10.6642 6.49997 10.25V9.00001L6.50803 8.91013C6.55036 8.67688 6.75451 8.50001 6.99997 8.50001H8.24997L8.35174 8.49316C8.71782 8.4435 8.99997 8.1297 8.99997 7.75001C8.99997 7.33579 8.66418 7.00001 8.24997 7.00001ZM19 9.00001C19 7.89544 18.1046 7.00001 17 7.00001H15.75C15.3358 7.00001 15 7.33579 15 7.75001C15 8.16422 15.3358 8.50001 15.75 8.50001H17C17.2761 8.50001 17.5 8.72387 17.5 9.00001V10.25C17.5 10.6642 17.8358 11 18.25 11C18.6642 11 19 10.6642 19 10.25V9.00001Z" fill="black"/>
</svg>
