<svg width="24" height="24" viewBox="0 0 24 24" fill="none" xmlns="http://www.w3.org/2000/svg">
<path d="M9.03033 11.9697L10.9496 13.889L15.4238 8.51988C15.689 8.20167 16.1619 8.15868 16.4801 8.42385C16.7983 8.68903 16.8413 9.16195 16.5762 9.48016L11.5762 15.4802C11.2938 15.819 10.7815 15.8422 10.4697 15.5303L7.96967 13.0303C7.67678 12.7375 7.67678 12.2626 7.96967 11.9697C8.26256 11.6768 8.73744 11.6768 9.03033 11.9697Z" fill="black"/>
<path fill-rule="evenodd" clip-rule="evenodd" d="M3 6C3 4.34315 4.34315 3 6 3H18C19.6569 3 21 4.34315 21 6V18C21 19.6569 19.6569 21 18 21H6C4.34315 21 3 19.6569 3 18V6ZM6 4.5H18C18.8284 4.5 19.5 5.17157 19.5 6V18C19.5 18.8284 18.8284 19.5 18 19.5H6C5.17157 19.5 4.5 18.8284 4.5 18V6C4.5 5.17157 5.17157 4.5 6 4.5Z" fill="black"/>
</svg>
