<svg width="28" height="28" viewBox="0 0 28 28" fill="none" xmlns="http://www.w3.org/2000/svg">
<path d="M10.5 15.75C10.5 19.9381 14.1564 23.3333 18.6667 23.3333C19.5102 23.3333 20.1422 21.91 21 22.1666C21.9892 22.4625 23.1904 24.4152 23.9167 23.9166C24.64 23.4201 23.4702 22.0291 23.9167 21C24.7122 19.1664 26.8334 17.3523 26.8334 15.75C26.8334 11.5618 23.177 8.16663 18.6667 8.16663C14.1564 8.16663 10.5 11.5618 10.5 15.75Z" fill="#BFE6EA"/>
<path fill-rule="evenodd" clip-rule="evenodd" d="M16.1978 6.97354C11.7392 7.85845 8.40019 11.4779 8.40019 15.8083C8.40019 16.2206 8.43045 16.6264 8.48905 17.024C8.21093 17.092 7.94041 17.1856 7.65502 17.2843C7.44742 17.3561 7.23195 17.4306 6.99996 17.5C6.58402 17.6244 6.13058 18.0418 5.69072 18.4467C5.08456 19.0047 4.50419 19.5389 4.08329 19.25C3.70663 18.9914 3.84336 18.4903 3.99786 17.924C4.14004 17.4028 4.29728 16.8265 4.08329 16.3333C3.76093 15.5903 3.2209 14.8505 2.69253 14.1267C1.91701 13.0643 1.16663 12.0364 1.16663 11.0833C1.16663 6.89517 4.82297 3.5 9.33329 3.5C12.2124 3.5 14.7436 4.88347 16.1978 6.97354Z" fill="#BFE6EA"/>
<path fill-rule="evenodd" clip-rule="evenodd" d="M12.7619 8.07215C12.8753 8.07215 12.9817 8.10341 13.0731 8.15796C12.1953 8.65196 11.4101 9.26593 10.7461 9.97421H5.95238C5.61049 9.97421 5.33333 9.69035 5.33333 9.34019V8.70617C5.33333 8.35601 5.61049 8.07215 5.95238 8.07215H12.7619ZM5.95238 11.2423H9.75365C9.37027 11.8362 9.06147 12.4736 8.83874 13.1443H5.95238C5.61049 13.1443 5.33333 12.8604 5.33333 12.5103V11.8763C5.33333 11.5261 5.61049 11.2423 5.95238 11.2423ZM7.95629 16.137C8.11697 16.1714 8.28057 16.201 8.44696 16.2257C8.49261 16.9007 8.62243 17.5553 8.82713 18.1812C8.66283 18.1674 8.49986 18.1495 8.33837 18.1277L4.22846 20.7585C3.42556 21.2724 2.4201 20.5238 2.64974 19.5831L3.52924 15.98C1.96627 14.6038 1 12.7051 1 10.6082C1 6.40632 4.8802 3 9.66667 3C12.901 3 15.7215 4.55534 17.2107 6.8605C16.5054 6.93181 15.8226 7.06948 15.1702 7.26638C13.9778 5.87656 12.0417 4.90206 9.66667 4.90206C5.62697 4.90206 2.85714 7.72131 2.85714 10.6082C2.85714 12.3779 3.89797 14.1222 5.6341 15.2072L4.93736 18.0518L4.93504 18.0632L5.88427 17.4556L5.88013 17.4538L7.95629 16.137ZM18.3333 21.3866C14.2936 21.3866 11.5238 18.5673 11.5238 15.6804C11.5238 12.7935 14.2936 9.97421 18.3333 9.97421C22.373 9.97421 25.1429 12.7935 25.1429 15.6804C25.1429 17.421 24.1359 19.1371 22.4508 20.2254L22.3837 20.234L22.7285 23.1618L19.9861 21.2212C19.4642 21.3288 18.9118 21.3866 18.3333 21.3866ZM27 15.6804C27 17.8315 25.9831 19.774 24.3484 21.1578L24.7911 24.7857C24.9049 25.7176 23.8814 26.3423 23.1352 25.7964L19.5974 23.2083C19.1847 23.2612 18.7627 23.2886 18.3333 23.2886C13.5469 23.2886 9.66667 19.8823 9.66667 15.6804C9.66667 11.4785 13.5469 8.07215 18.3333 8.07215C23.1198 8.07215 27 11.4785 27 15.6804ZM22.0476 13.1443C22.3895 13.1443 22.6667 13.4282 22.6667 13.7783V14.4123C22.6667 14.7625 22.3895 15.0464 22.0476 15.0464H14.619C14.2772 15.0464 14 14.7625 14 14.4123V13.7783C14 13.4282 14.2772 13.1443 14.619 13.1443H22.0476ZM22.0476 16.3144C22.3895 16.3144 22.6667 16.5983 22.6667 16.9484V17.5824C22.6667 17.9326 22.3895 18.2165 22.0476 18.2165H15.8571C15.5153 18.2165 15.2381 17.9326 15.2381 17.5824V16.9484C15.2381 16.5983 15.5153 16.3144 15.8571 16.3144H22.0476Z" fill="#6DC9D1"/>
</svg>
