<svg width="24" height="24" viewBox="0 0 24 24" fill="none" xmlns="http://www.w3.org/2000/svg">
<path fill-rule="evenodd" clip-rule="evenodd" d="M11.0476 6.96951C11.1349 6.96951 11.2167 6.99397 11.287 7.03666C10.6118 7.42327 10.0078 7.90377 9.49702 8.45808H5.80952C5.54653 8.45808 5.33333 8.23593 5.33333 7.96189V7.4657C5.33333 7.19166 5.54653 6.96951 5.80952 6.96951H11.0476ZM5.80952 9.45046H8.73358C8.43867 9.91528 8.20113 10.4142 8.0298 10.939H5.80952C5.54653 10.939 5.33333 10.7169 5.33333 10.4428V9.94665C5.33333 9.67261 5.54653 9.45046 5.80952 9.45046ZM7.351 13.2811C7.47459 13.308 7.60044 13.3312 7.72843 13.3505C7.76354 13.8788 7.8634 14.3911 8.02087 14.881C7.89448 14.8701 7.76913 14.8561 7.6449 14.839L4.48343 16.8979C3.86582 17.3002 3.09239 16.7143 3.26903 15.9781L3.94557 13.1583C2.74328 12.0813 2 10.5953 2 8.95427C2 5.66582 4.98477 3 8.66667 3C11.1546 3 13.3243 4.21722 14.4698 6.02127C13.9273 6.07707 13.402 6.18481 12.9001 6.33891C11.9829 5.25122 10.4936 4.48857 8.66667 4.48857C5.55921 4.48857 3.42857 6.69494 3.42857 8.95427C3.42857 10.3392 4.22921 11.7043 5.56469 12.5535L5.02874 14.7796L5.02695 14.7886L5.75713 14.3131L5.75395 14.3117L7.351 13.2811ZM15.3333 17.3895C12.2259 17.3895 10.0952 15.1831 10.0952 12.9238C10.0952 10.6645 12.2259 8.45808 15.3333 8.45808C18.4408 8.45808 20.5714 10.6645 20.5714 12.9238C20.5714 14.286 19.7969 15.629 18.5006 16.4808L18.449 16.4875L18.7143 18.7788L16.6047 17.2601C16.2032 17.3442 15.7783 17.3895 15.3333 17.3895ZM22 12.9238C22 14.6072 21.2178 16.1275 19.9603 17.2105L20.3009 20.0496C20.3884 20.779 19.6011 21.2679 19.0271 20.8407L16.3057 18.8152C15.9883 18.8566 15.6636 18.8781 15.3333 18.8781C11.6514 18.8781 8.66667 16.2122 8.66667 12.9238C8.66667 9.63533 11.6514 6.96951 15.3333 6.96951C19.0152 6.96951 22 9.63533 22 12.9238ZM18.1905 10.939C18.4535 10.939 18.6667 11.1612 18.6667 11.4352V11.9314C18.6667 12.2054 18.4535 12.4276 18.1905 12.4276H12.4762C12.2132 12.4276 12 12.2054 12 11.9314V11.4352C12 11.1612 12.2132 10.939 12.4762 10.939H18.1905ZM18.1905 13.42C18.4535 13.42 18.6667 13.6421 18.6667 13.9162V14.4123C18.6667 14.6864 18.4535 14.9085 18.1905 14.9085H13.4286C13.1656 14.9085 12.9524 14.6864 12.9524 14.4123V13.9162C12.9524 13.6421 13.1656 13.42 13.4286 13.42H18.1905Z" fill="black"/>
</svg>
