<svg xmlns="http://www.w3.org/2000/svg" width="24" height="24" viewBox="0 0 24 24" fill="none">
  <path d="M6.90483 19.1562C6.47396 19.1562 6.10464 19.0047 5.79688 18.7017C5.48911 18.3987 5.33759 18.0294 5.34233 17.5938C5.33759 17.1676 5.48911 16.803 5.79688 16.5C6.10464 16.197 6.47396 16.0455 6.90483 16.0455C7.3215 16.0455 7.68371 16.197 7.99148 16.5C8.30398 16.803 8.46259 17.1676 8.46733 17.5938C8.46259 17.8826 8.38684 18.1454 8.24006 18.3821C8.09801 18.6188 7.90862 18.8082 7.67188 18.9503C7.43987 19.0876 7.18419 19.1562 6.90483 19.1562ZM11.887 14.7244V14.5398C11.8917 13.6828 11.9722 13.0009 12.1285 12.4943C12.2895 11.9877 12.5167 11.5805 12.8103 11.2727C13.1039 10.9602 13.4613 10.6738 13.8827 10.4134C14.1716 10.2334 14.4296 10.0369 14.6569 9.82386C14.8889 9.60606 15.0712 9.36458 15.2038 9.09943C15.3363 8.82955 15.4026 8.52888 15.4026 8.19744C15.4026 7.82339 15.315 7.49905 15.1398 7.22443C14.9647 6.94981 14.7279 6.73674 14.4296 6.58523C14.1361 6.43371 13.807 6.35795 13.4424 6.35795C13.1062 6.35795 12.7866 6.43134 12.4836 6.57812C12.1853 6.72017 11.9367 6.93797 11.7379 7.23153C11.5437 7.52036 11.4348 7.88731 11.4112 8.33239H8.88274C8.90642 7.43276 9.12422 6.67992 9.53615 6.07386C9.95282 5.4678 10.5021 5.01326 11.1839 4.71023C11.8704 4.4072 12.628 4.25568 13.4566 4.25568C14.361 4.25568 15.1564 4.4143 15.843 4.73153C16.5343 5.04877 17.0717 5.50095 17.4552 6.08807C17.8434 6.67045 18.0376 7.36174 18.0376 8.16193C18.0376 8.7017 17.95 9.18466 17.7748 9.6108C17.6043 10.0369 17.3605 10.4157 17.0433 10.7472C16.726 11.0786 16.3496 11.3745 15.914 11.6349C15.5305 11.8717 15.2156 12.1179 14.9694 12.3736C14.7279 12.6293 14.548 12.9299 14.4296 13.2756C14.316 13.6165 14.2568 14.0379 14.2521 14.5398V14.7244H11.887ZM13.1228 19.1562C12.6967 19.1562 12.3297 19.0047 12.0219 18.7017C11.7142 18.3987 11.5603 18.0294 11.5603 17.5938C11.5603 17.1676 11.7142 16.803 12.0219 16.5C12.3297 16.197 12.6967 16.0455 13.1228 16.0455C13.5442 16.0455 13.9088 16.197 14.2165 16.5C14.529 16.803 14.6853 17.1676 14.6853 17.5938C14.6853 17.8826 14.6119 18.1454 14.4651 18.3821C14.3231 18.6188 14.1337 18.8082 13.8969 18.9503C13.6649 19.0876 13.4069 19.1562 13.1228 19.1562Z" fill="black"/>
</svg>
