<svg width="24" height="24" viewBox="0 0 24 24" fill="none" xmlns="http://www.w3.org/2000/svg">
<path d="M8.53033 9.96967C8.23744 9.67678 7.76256 9.67678 7.46967 9.96967C7.17678 10.2626 7.17678 10.7374 7.46967 11.0303L11.4697 15.0303C11.7626 15.3232 12.2374 15.3232 12.5303 15.0303L16.5303 11.0303C16.8232 10.7374 16.8232 10.2626 16.5303 9.96967C16.2374 9.67678 15.7626 9.67678 15.4697 9.96967L12 13.4393L8.53033 9.96967Z" fill="black"/>
<path fill-rule="evenodd" clip-rule="evenodd" d="M2 7C2 5.34315 3.34315 4 5 4H19C20.6569 4 22 5.34315 22 7V17C22 18.6569 20.6569 20 19 20H5C3.34315 20 2 18.6569 2 17V7ZM5 5.5H19C19.8284 5.5 20.5 6.17157 20.5 7V17C20.5 17.8284 19.8284 18.5 19 18.5H5C4.17157 18.5 3.5 17.8284 3.5 17V7C3.5 6.17157 4.17157 5.5 5 5.5Z" fill="black"/>
</svg>
