<svg width="28" height="28" viewBox="0 0 28 28" fill="none" xmlns="http://www.w3.org/2000/svg">
<path d="M13.5487 21.4678C14.5399 23.2749 16.4602 24.5 18.6667 24.5C21.8884 24.5 24.5 21.8883 24.5 18.6667C24.5 15.445 21.8884 12.8333 18.6667 12.8333C17.1382 12.8333 15.747 13.4212 14.7069 14.3832L10.5 10.5L2.33337 18.6667L4.66671 23.3333L8.75004 25.6667L13.5487 21.4678Z" fill="#C1E0F9"/>
<path d="M18.2171 15.0912C18.7094 15.0912 19.1085 15.4903 19.1085 15.9826L19.1085 22.5197C19.1085 23.012 18.7094 23.4111 18.2171 23.4111C17.7248 23.4111 17.3257 23.012 17.3257 22.5197V15.9826C17.3257 15.4903 17.7248 15.0912 18.2171 15.0912Z" fill="#64AAED"/>
<path fill-rule="evenodd" clip-rule="evenodd" d="M13.3032 23.6785C13.3448 23.7244 13.3871 23.7696 13.4301 23.8141L13.1591 24.0851C10.6062 26.638 6.46709 26.638 3.91419 24.0851C1.36129 21.5322 1.36129 17.3931 3.91419 14.8402L14.84 3.91443C17.3929 1.36153 21.5319 1.36153 24.0848 3.91443C26.6377 6.46734 26.6377 10.6064 24.0848 13.1593L22.9976 14.2466C24.2676 15.4765 25.057 17.1997 25.057 19.1072C25.057 22.8439 22.0279 25.873 18.2912 25.873C16.3169 25.873 14.5401 25.0273 13.3032 23.6785ZM12.3592 22.3636L11.8984 22.8244C10.0417 24.6811 7.03151 24.6811 5.17485 22.8244C3.3182 20.9678 3.3182 17.9575 5.17485 16.1009L10.2175 11.0582L13.4948 14.3355C12.2777 15.5588 11.5255 17.2452 11.5255 19.1072C11.5255 20.2877 11.8278 21.3976 12.3592 22.3636ZM14.9203 13.2397C15.9128 12.6683 17.0638 12.3414 18.2912 12.3414C19.4717 12.3414 20.5816 12.6438 21.5476 13.1752L22.8242 11.8986C24.6808 10.042 24.6808 7.03176 22.8242 5.1751C20.9675 3.31844 17.9573 3.31844 16.1006 5.1751L11.4782 9.79754L14.9203 13.2397ZM13.3083 19.1072C13.3083 21.8592 15.5392 24.0902 18.2912 24.0902C21.0432 24.0902 23.2742 21.8592 23.2742 19.1072C23.2742 16.3552 21.0432 14.1243 18.2912 14.1243C15.5392 14.1243 13.3083 16.3552 13.3083 19.1072Z" fill="#64AAED"/>
</svg>
