<svg width="20" height="20" viewBox="0 0 20 20" fill="none" xmlns="http://www.w3.org/2000/svg">
<path fill-rule="evenodd" clip-rule="evenodd" d="M4.16602 4.5835H15.8327C16.523 4.5835 17.0827 5.14314 17.0827 5.8335V14.1668C17.0827 14.8572 16.523 15.4168 15.8327 15.4168H4.16602C3.47566 15.4168 2.91602 14.8572 2.91602 14.1668V5.8335C2.91602 5.14314 3.47566 4.5835 4.16602 4.5835ZM1.66602 5.8335C1.66602 4.45278 2.7853 3.3335 4.16602 3.3335H15.8327C17.2134 3.3335 18.3327 4.45278 18.3327 5.8335V14.1668C18.3327 15.5475 17.2134 16.6668 15.8327 16.6668H4.16602C2.7853 16.6668 1.66602 15.5475 1.66602 14.1668V5.8335ZM4.79102 6.4585C4.44584 6.4585 4.16602 6.73832 4.16602 7.0835C4.16602 7.42867 4.44584 7.7085 4.79102 7.7085H12.7077C13.0529 7.7085 13.3327 7.42867 13.3327 7.0835C13.3327 6.73832 13.0529 6.4585 12.7077 6.4585H4.79102ZM4.16602 10.0002C4.16602 9.65498 4.44584 9.37516 4.79102 9.37516H15.2077C15.5529 9.37516 15.8327 9.65498 15.8327 10.0002C15.8327 10.3453 15.5529 10.6252 15.2077 10.6252H4.79102C4.44584 10.6252 4.16602 10.3453 4.16602 10.0002ZM4.79102 12.2918C4.44584 12.2918 4.16602 12.5717 4.16602 12.9168C4.16602 13.262 4.44584 13.5418 4.79102 13.5418H10.2077C10.5529 13.5418 10.8327 13.262 10.8327 12.9168C10.8327 12.5717 10.5529 12.2918 10.2077 12.2918H4.79102Z" fill="white"/>
</svg>
