<svg width="24" height="24" viewBox="0 0 24 24" fill="none" xmlns="http://www.w3.org/2000/svg">
<path d="M21.0303 2.96973C22.4278 4.36719 22.4278 6.63293 21.0303 8.03039L9.06198 19.9987C8.7851 20.2756 8.44076 20.4754 8.063 20.5784L2.94731 21.9736C2.38744 22.1263 1.87371 21.6126 2.0264 21.0527L3.42159 15.937C3.52462 15.5593 3.72444 15.2149 4.00132 14.9381L15.9696 2.96973C17.3671 1.57227 19.6328 1.57227 21.0303 2.96973ZM15.0001 6.06063L5.06198 15.9987C4.96969 16.091 4.90308 16.2058 4.86874 16.3317L3.81889 20.1811L7.66833 19.1313C7.79425 19.097 7.90903 19.0303 8.00132 18.9381L17.9391 8.99963L15.0001 6.06063ZM17.0303 4.03039L16.0601 4.99963L18.9991 7.93963L19.9696 6.96973C20.7813 6.15805 20.7813 4.84206 19.9696 4.03039C19.158 3.21871 17.842 3.21871 17.0303 4.03039Z" fill="black"/>
</svg>
