<svg width="24" height="24" viewBox="0 0 24 24" fill="none" xmlns="http://www.w3.org/2000/svg">
<path fill-rule="evenodd" clip-rule="evenodd" d="M3.7 20.3V3.7H20.3V20.3H3.7ZM2.5 3.5C2.5 2.94771 2.94772 2.5 3.5 2.5H20.5C21.0523 2.5 21.5 2.94772 21.5 3.5V20.5C21.5 21.0523 21.0523 21.5 20.5 21.5H3.5C2.94771 21.5 2.5 21.0523 2.5 20.5V3.5ZM7.8614 12.1098L8.50243 9.97299L9.42058 15.4818C9.54573 16.2328 10.6032 16.2905 10.8093 15.5576L11.6362 12.6175H12.8806C13.1893 12.6175 13.4628 12.4188 13.5582 12.1253L14.1653 10.2572L14.6747 15.4966C14.7458 16.2275 15.7423 16.386 16.0366 15.7132L17.391 12.6175H18.6496C18.9907 12.6175 19.2671 12.3411 19.2671 12C19.2671 11.659 18.9907 11.3825 18.6496 11.3825H17.0493C16.7662 11.3825 16.51 11.5501 16.3965 11.8095L15.7097 13.3793L15.1521 7.64374C15.0773 6.87503 14.004 6.75795 13.7653 7.49247L12.501 11.3825H11.2403C10.9211 11.3825 10.6409 11.5948 10.5545 11.9021L10.254 12.9703L9.35094 7.55182C9.22689 6.80752 8.18251 6.74148 7.96569 7.46422L6.79019 11.3825H5.34963C5.00859 11.3825 4.73213 11.659 4.73213 12C4.73213 12.3411 5.00859 12.6175 5.34963 12.6175H7.17895C7.49359 12.6175 7.77098 12.4112 7.8614 12.1098Z" fill="black"/>
</svg>
