<svg width="24" height="24" viewBox="0 0 24 24" fill="none" xmlns="http://www.w3.org/2000/svg">
<g clip-path="url(#clip0_11278_101063)">
<path fill-rule="evenodd" clip-rule="evenodd" d="M3 2.00003C2.44772 2.00003 2 2.44775 2 3.00003V21C2 21.5523 2.44772 22 3 22H13.8027C13.2922 21.1175 13 20.0929 13 19C13 15.6863 15.6863 13 19 13C20.0929 13 21.1175 13.2922 22 13.8027V3.00003C22 2.44775 21.5523 2.00003 21 2.00003H3Z" fill="#FCECEF"/>
<path fill-rule="evenodd" clip-rule="evenodd" d="M3.5 20.5V3.50003H20.5V13.189C21.0322 13.326 21.5357 13.5341 22 13.8027V3.00003C22 2.44775 21.5523 2.00003 21 2.00003H3C2.44772 2.00003 2 2.44775 2 3.00003V21C2 21.5523 2.44772 22 3 22H13.8027C13.5341 21.5358 13.326 21.0322 13.189 20.5H3.5Z" fill="#E98484"/>
<path fill-rule="evenodd" clip-rule="evenodd" d="M7.64358 12.1155L8.31835 9.86626L9.28482 15.665C9.41656 16.4555 10.5296 16.5162 10.7466 15.7448L11.617 12.65H12.927C13.2519 12.65 13.5398 12.4408 13.6402 12.1318L14.2793 10.1655L14.7286 14.7865C15.4632 14.0418 16.3911 13.4883 17.4309 13.2073L17.6747 12.65H18.9996C19.3586 12.65 19.6496 12.359 19.6496 12C19.6496 11.641 19.3586 11.35 18.9996 11.35H17.315C17.017 11.35 16.7473 11.5264 16.6279 11.7994L15.9049 13.4519L15.318 7.41442C15.2393 6.60525 14.1095 6.482 13.8582 7.25518L12.5274 11.35H11.2004C10.8644 11.35 10.5693 11.5735 10.4784 11.8969L10.1621 13.0214L9.21152 7.31766C9.08094 6.53418 7.98159 6.46467 7.75335 7.22545L6.51599 11.35H4.99961C4.64062 11.35 4.34961 11.641 4.34961 12C4.34961 12.359 4.64062 12.65 4.99961 12.65H6.92521C7.25641 12.65 7.5484 12.4328 7.64358 12.1155Z" fill="#757575"/>
<path d="M19 14C21.7614 14 24 16.2386 24 19C24 21.7614 21.7614 24 19 24C16.2386 24 14 21.7614 14 19C14 16.2386 16.2386 14 19 14ZM20.6098 17.4848L18.375 19.7197L17.3902 18.7348C17.2437 18.5884 17.0063 18.5884 16.8598 18.7348C16.7134 18.8813 16.7134 19.1187 16.8598 19.2652L18.1098 20.5152C18.2563 20.6616 18.4937 20.6616 18.6402 20.5152L21.1402 18.0152C21.2866 17.8687 21.2866 17.6313 21.1402 17.4848C20.9937 17.3384 20.7563 17.3384 20.6098 17.4848Z" fill="#059E24"/>
</g>
<defs>
<clipPath id="clip0_11278_101063">
<rect width="24" height="24" fill="white"/>
</clipPath>
</defs>
</svg>
