<svg width="28" height="28" viewBox="0 0 28 28" fill="none" xmlns="http://www.w3.org/2000/svg">
<mask id="path-1-inside-1_781_77941" fill="white">
<rect x="2.33337" y="2.33337" width="23.3333" height="23.3333" rx="1"/>
</mask>
<rect x="2.33337" y="2.33337" width="23.3333" height="23.3333" rx="1" fill="#FCECEF" stroke="#E98484" stroke-width="3" mask="url(#path-1-inside-1_781_77941)"/>
<path fill-rule="evenodd" clip-rule="evenodd" d="M9.70466 11.5106L8.91742 14.1348C8.80639 14.5049 8.46573 14.7583 8.07933 14.7583H5.8328C5.41398 14.7583 5.07446 14.4188 5.07446 14C5.07446 13.5812 5.41398 13.2417 5.8328 13.2417H7.60191L9.0455 8.42971C9.31177 7.54213 10.5943 7.62322 10.7467 8.53729L11.8557 15.1916L12.2247 13.8798C12.3308 13.5024 12.675 13.2417 13.067 13.2417H14.6152L16.1678 8.46439C16.461 7.56235 17.7791 7.70613 17.8709 8.65017L18.5557 15.6938L19.3991 13.766C19.5385 13.4475 19.8531 13.2417 20.2008 13.2417H22.1661C22.5849 13.2417 22.9245 13.5812 22.9245 14C22.9245 14.4188 22.5849 14.7583 22.1661 14.7583H20.6204L18.9572 18.56C18.5957 19.3863 17.3719 19.1916 17.2847 18.294L16.6591 11.8597L15.9135 14.1538C15.7964 14.5143 15.4604 14.7583 15.0814 14.7583H13.5531L12.5376 18.369C12.2845 19.269 10.9859 19.1981 10.8322 18.2759L9.70466 11.5106Z" fill="#757575"/>
</svg>
