<svg width="24" height="24" viewBox="0 0 24 24" fill="none" xmlns="http://www.w3.org/2000/svg">
<path fill-rule="evenodd" clip-rule="evenodd" d="M2.06768 2.08099C1.73574 2.41294 1.73574 2.95113 2.06769 3.28307L5.79046 7.00583C4.29731 8.0819 3.01239 9.59092 2.10328 11.5329C1.96562 11.827 1.96561 12.1731 2.10328 12.4672C4.97605 18.6038 11.6013 20.4171 16.6918 17.9071L20.6646 21.88C20.9965 22.2119 21.5347 22.2119 21.8667 21.88C22.1986 21.548 22.1986 21.0098 21.8667 20.6779L3.26977 2.08099C2.93782 1.74904 2.39963 1.74904 2.06768 2.08099ZM15.2318 16.4472L14.0191 15.2345C13.4414 15.6467 12.747 15.8871 12 15.8871C9.99011 15.8871 8.36074 14.1468 8.36074 12.0001C8.36074 11.2938 8.5371 10.6315 8.84536 10.0607L7.16323 8.3786C5.87356 9.21774 4.74766 10.4249 3.92921 12.0001C6.28885 16.5413 11.2039 18.0237 15.2318 16.4472ZM10.8976 8.29459L15.5342 12.9312C15.6029 12.6329 15.6393 12.321 15.6393 12.0001C15.6393 9.85332 14.01 8.11305 12 8.11305C11.6157 8.11305 11.2453 8.17667 10.8976 8.29459ZM20.0709 12.0001C19.4268 13.2395 18.5925 14.2511 17.6378 15.0348L18.9837 16.3807C20.1468 15.3692 21.149 14.0647 21.8968 12.4672C22.0344 12.1731 22.0345 11.827 21.8968 11.5329C19.2031 5.77887 13.2102 3.82588 8.27696 5.67396L9.81868 7.21568C13.6179 6.25226 17.913 7.84705 20.0709 12.0001Z" fill="black"/>
</svg>
