<svg width="24" height="24" viewBox="0 0 24 24" fill="none" xmlns="http://www.w3.org/2000/svg">
<path fill-rule="evenodd" clip-rule="evenodd" d="M15.7125 2.51258C16.3959 1.82914 17.504 1.82914 18.1874 2.51258L21.4874 5.81255C22.1709 6.496 22.1709 7.60409 21.4874 8.28753L8.28753 21.4874C7.60409 22.1709 6.496 22.1709 5.81256 21.4874L2.51258 18.1874C1.82914 17.504 1.82914 16.3959 2.51258 15.7125L15.7125 2.51258ZM14.805 5.40006L16.7025 3.50258C16.8391 3.36589 17.0608 3.36589 17.1975 3.50258L20.4974 6.80255C20.6341 6.93924 20.6341 7.16085 20.4974 7.29754L7.29754 20.4974C7.16085 20.6341 6.93924 20.6341 6.80255 20.4974L3.50258 17.1975C3.36589 17.0608 3.36589 16.8391 3.50258 16.7025L5.15256 15.0525L6.55505 16.455C6.82843 16.7283 7.27166 16.7283 7.54504 16.455C7.81842 16.1816 7.81842 15.7383 7.54504 15.465L6.14255 14.0625L8.04004 12.165L10.2675 14.3925C10.5409 14.6659 10.9841 14.6659 11.2575 14.3925C11.5309 14.1191 11.5309 13.6759 11.2575 13.4025L9.03003 11.175L10.9275 9.27752L12.33 10.68C12.6034 10.9534 13.0466 10.9534 13.32 10.68C13.5934 10.4066 13.5934 9.9634 13.32 9.69002L11.9175 8.28753L13.815 6.39005L16.0425 8.61753C16.3158 8.89091 16.7591 8.89091 17.0325 8.61753C17.3058 8.34415 17.3058 7.90092 17.0325 7.62754L14.805 5.40006Z" fill="black"/>
</svg>

