<svg width="24" height="24" viewBox="0 0 24 24" fill="none" xmlns="http://www.w3.org/2000/svg">
<path fill-rule="evenodd" clip-rule="evenodd" d="M5 5.5H19C19.8284 5.5 20.5 6.17157 20.5 7V17C20.5 17.8284 19.8284 18.5 19 18.5H5C4.17157 18.5 3.5 17.8284 3.5 17V7C3.5 6.17157 4.17157 5.5 5 5.5ZM2 7C2 5.34315 3.34315 4 5 4H19C20.6569 4 22 5.34315 22 7V17C22 18.6569 20.6569 20 19 20H5C3.34315 20 2 18.6569 2 17V7ZM5.75 7.75C5.33579 7.75 5 8.08579 5 8.5C5 8.91421 5.33579 9.25 5.75 9.25H15.25C15.6642 9.25 16 8.91421 16 8.5C16 8.08579 15.6642 7.75 15.25 7.75H5.75ZM5 12C5 11.5858 5.33579 11.25 5.75 11.25H18.25C18.6642 11.25 19 11.5858 19 12C19 12.4142 18.6642 12.75 18.25 12.75H5.75C5.33579 12.75 5 12.4142 5 12ZM5.75 14.75C5.33579 14.75 5 15.0858 5 15.5C5 15.9142 5.33579 16.25 5.75 16.25H12.25C12.6642 16.25 13 15.9142 13 15.5C13 15.0858 12.6642 14.75 12.25 14.75H5.75Z" fill="black"/>
</svg>
