<svg width="24" height="24" viewBox="0 0 24 24" fill="none" xmlns="http://www.w3.org/2000/svg">
<path fill-rule="evenodd" clip-rule="evenodd" d="M14.7929 3.70711C14.4024 3.31658 14.4024 2.68342 14.7929 2.29289C15.1834 1.90237 15.8166 1.90237 16.2071 2.29289L21.2071 7.29289C21.5976 7.68342 21.5976 8.31658 21.2071 8.70711L16.2071 13.7071C15.8166 14.0976 15.1834 14.0976 14.7929 13.7071C14.4024 13.3166 14.4024 12.6834 14.7929 12.2929L18.0858 9H10.5C7.46612 9 5 11.321 5 14C5 16.679 7.46612 19 10.5 19H17.6333C18.1856 19 18.6333 19.4477 18.6333 20C18.6333 20.5523 18.1856 21 17.6333 21H10.5C6.53388 21 3 17.9484 3 14C3 10.0516 6.53388 7 10.5 7H18.0858L14.7929 3.70711Z" fill="black"/>
</svg>
