<svg width="24" height="24" viewBox="0 0 24 24" fill="none" xmlns="http://www.w3.org/2000/svg">
<path d="M3 4.5C3 3.67157 3.67157 3 4.5 3H19.5C20.3284 3 21 3.67157 21 4.5V6.5C21 7.32843 20.3284 8 19.5 8H4.5C3.67157 8 3 7.32843 3 6.5V4.5Z" fill="black"/>
<path d="M3 11C3 10.1716 3.67157 9.5 4.5 9.5H19.5C20.3284 9.5 21 10.1716 21 11V13C21 13.8284 20.3284 14.5 19.5 14.5H4.5C3.67157 14.5 3 13.8284 3 13V11Z" fill="black"/>
<path d="M3 17.5C3 16.6716 3.67157 16 4.5 16H19.5C20.3284 16 21 16.6716 21 17.5V19.5C21 20.3284 20.3284 21 19.5 21H4.5C3.67157 21 3 20.3284 3 19.5V17.5Z" fill="black"/>
</svg>
