<svg width="18" height="18" viewBox="0 0 18 18" fill="none" xmlns="http://www.w3.org/2000/svg">
<path d="M10.2148 11.813L12.9044 9.28179C13.3838 8.83063 14.1611 8.83063 14.6405 9.28179C15.1198 9.73295 15.1198 10.4644 14.6405 10.9156L9.94241 15.337C9.91953 15.3626 9.89528 15.3875 9.86966 15.4116C9.39027 15.8628 8.61302 15.8628 8.13363 15.4116L3.35954 10.9187C2.88015 10.4675 2.88015 9.73604 3.35954 9.28488C3.83894 8.83372 4.61618 8.83372 5.09557 9.28488L7.75972 11.7921L7.75973 3.40527C7.75972 2.76723 8.30932 2.25 8.98728 2.25C9.66525 2.25 10.2148 2.76723 10.2148 3.40527V11.813Z" fill="#0074E6"/>
</svg>
