<svg width="24" height="24" viewBox="0 0 24 24" fill="none" xmlns="http://www.w3.org/2000/svg">
<path fill-rule="evenodd" clip-rule="evenodd" d="M19 12C19 15.355 16.6397 18.1587 13.4891 18.8413C12.6794 19.0167 12 19.6716 12 20.5C12 21.3284 12.6755 22.0118 13.4948 21.889C18.3086 21.1675 22 17.0148 22 12C22 6.47715 17.5228 2 12 2C6.98514 2 2.83246 5.6914 2.11095 10.5052C1.98816 11.3245 2.67156 12 3.49999 12C4.32841 12 4.9833 11.3206 5.1587 10.5109C5.84127 7.36026 8.645 5 12 5C15.866 5 19 8.13401 19 12Z" fill="black"/>
</svg>
