<svg width="24" height="24" viewBox="0 0 24 24" fill="none" xmlns="http://www.w3.org/2000/svg">
<path d="M8.6436 8.20797L11.3272 2.75967C11.6021 2.20153 12.3979 2.20153 12.6728 2.75967L15.3563 8.20797L21.3672 9.07657C21.9828 9.16552 22.2289 9.92197 21.7834 10.356L17.4358 14.5922L18.4622 20.5779C18.5673 21.1908 17.9237 21.6581 17.3734 21.3682L12 18.5378L6.6265 21.3682C6.07602 21.6582 5.4322 21.1904 5.53786 20.5773L6.56925 14.5922L2.21687 10.3563C1.771 9.9224 2.01692 9.16555 2.63269 9.07657L8.6436 8.20797ZM12 4.78844L9.81467 9.22516C9.70542 9.44698 9.49385 9.60069 9.24912 9.63605L4.35426 10.3434L7.89853 13.7927C8.07573 13.9652 8.15654 14.2139 8.11455 14.4576L7.27466 19.3315L11.6504 17.0266C11.8692 16.9113 12.1307 16.9113 12.3495 17.0266L16.7267 19.3322L15.8908 14.457C15.849 14.2136 15.9297 13.9653 16.1066 13.7931L19.6468 10.3435L14.7508 9.63605C14.5061 9.60069 14.2945 9.44698 14.1853 9.22516L12 4.78844Z" fill="black"/>
</svg>
