<svg width="24" height="24" viewBox="0 0 24 24" fill="none" xmlns="http://www.w3.org/2000/svg">
<path d="M3.51403 2.5C3.03706 2.5 2.65039 2.88667 2.65039 3.36364V9.12112C2.65039 11.6887 4.51783 13.8202 6.9686 14.2313V15.4545C6.9686 18.7933 9.67526 21.5 13.0141 21.5C16.3529 21.5 19.0596 18.7933 19.0596 15.4545V14.1838C20.3887 13.8078 21.3626 12.5858 21.3626 11.1363C21.3626 9.38737 19.9449 7.96959 18.196 7.96959C16.447 7.96959 15.0293 9.38737 15.0293 11.1363C15.0293 12.5858 16.0032 13.8078 17.3323 14.1838V15.4545C17.3323 17.8394 15.399 19.7727 13.0141 19.7727C10.6292 19.7727 8.69589 17.8394 8.69589 15.4545V14.2313C11.1467 13.8202 13.0141 11.6887 13.0141 9.12112V3.36364C13.0141 2.88667 12.6274 2.5 12.1505 2.5H10.4232C9.9462 2.5 9.55953 2.88667 9.55953 3.36364C9.55953 3.84062 9.9462 4.22728 10.4232 4.22728H11.2868V9.12112C11.2868 11.029 9.74015 12.5757 7.83224 12.5757C5.92434 12.5757 4.37768 11.029 4.37768 9.12112V4.22728H5.24132C5.71829 4.22728 6.10496 3.84062 6.10496 3.36364C6.10496 2.88667 5.71829 2.5 5.24132 2.5H3.51403ZM18.196 9.69688C18.9909 9.69688 19.6354 10.3413 19.6354 11.1363C19.6354 11.9312 18.9909 12.5757 18.196 12.5757C17.401 12.5757 16.7565 11.9312 16.7565 11.1363C16.7565 10.3413 17.401 9.69688 18.196 9.69688Z" fill="black"/>
</svg>
