<svg width="24" height="24" viewBox="0 0 24 24" fill="none" xmlns="http://www.w3.org/2000/svg">
<path fill-rule="evenodd" clip-rule="evenodd" d="M3.5 12C3.5 7.30558 7.30558 3.5 12 3.5C16.6944 3.5 20.5 7.30558 20.5 12C20.5 16.6944 16.6944 20.5 12 20.5C7.30558 20.5 3.5 16.6944 3.5 12ZM15.2197 8.96967L10.75 13.4393L8.78033 11.4697L8.69621 11.3971C8.4026 11.1792 7.98594 11.2034 7.71967 11.4697C7.42678 11.7626 7.42678 12.2374 7.71967 12.5303L10.2197 15.0303L10.3038 15.1029C10.5974 15.3208 11.0141 15.2966 11.2803 15.0303L16.2803 10.0303L16.3529 9.94621C16.5708 9.6526 16.5466 9.23594 16.2803 8.96967C15.9874 8.67678 15.5126 8.67678 15.2197 8.96967Z" fill="#E6F5E9"/>
<path d="M15.2197 8.96967L10.75 13.4393L8.78033 11.4697L8.69621 11.3971C8.4026 11.1792 7.98594 11.2034 7.71967 11.4697C7.42678 11.7626 7.42678 12.2374 7.71967 12.5303L10.2197 15.0303L10.3038 15.1029C10.5974 15.3208 11.0141 15.2966 11.2803 15.0303L16.2803 10.0303L16.3529 9.94621C16.5708 9.6526 16.5466 9.23594 16.2803 8.96967C15.9874 8.67678 15.5126 8.67678 15.2197 8.96967Z" fill="#059E24"/>
<path fill-rule="evenodd" clip-rule="evenodd" d="M12 20.5C16.6944 20.5 20.5 16.6944 20.5 12C20.5 7.30558 16.6944 3.5 12 3.5C7.30558 3.5 3.5 7.30558 3.5 12C3.5 16.6944 7.30558 20.5 12 20.5ZM12 22C17.5228 22 22 17.5228 22 12C22 6.47715 17.5228 2 12 2C6.47715 2 2 6.47715 2 12C2 17.5228 6.47715 22 12 22Z" fill="#58BE6C"/>
</svg>
