<svg width="24" height="24" viewBox="0 0 24 24" fill="none" xmlns="http://www.w3.org/2000/svg">
<path fill-rule="evenodd" clip-rule="evenodd" d="M6 3H18C19.6569 3 21 4.34315 21 6V18C21 19.6569 19.6569 21 18 21H6C4.34315 21 3 19.6569 3 18V6C3 4.34315 4.34315 3 6 3ZM2 6C2 3.79086 3.79086 2 6 2H18C20.2091 2 22 3.79086 22 6V18C22 20.2091 20.2091 22 18 22H6C3.79086 22 2 20.2091 2 18V6ZM6.2 7.8V6.2H9.8V7.8H6.2ZM5 6C5 5.44772 5.44772 5 6 5H11V9H6C5.44772 9 5 8.55228 5 8V6ZM6.2 11.2V12.8H9.8V11.2H6.2ZM6 10C5.44772 10 5 10.4477 5 11V13C5 13.5523 5.44772 14 6 14H11V10H6ZM6.2 16.2V17.8H9.8V16.2H6.2ZM6 15C5.44772 15 5 15.4477 5 16V18C5 18.5523 5.44772 19 6 19H11V15H6ZM12 5H17C18.1046 5 19 5.89543 19 7V17C19 18.1046 18.1046 19 17 19H12V5Z" fill="black"/>
</svg>
