<svg width="24" height="24" viewBox="0 0 24 24" fill="none" xmlns="http://www.w3.org/2000/svg">
<g clip-path="url(#clip0_11278_101062)">
<path fill-rule="evenodd" clip-rule="evenodd" d="M3 2.00004C2.44772 2.00004 2 2.44775 2 3.00004V21C2 21.5523 2.44772 22 3 22H13.8027C13.2922 21.1175 13 20.0929 13 19C13 15.6863 15.6863 13 19 13C20.0929 13 21.1175 13.2922 22 13.8027V3.00004C22 2.44775 21.5523 2.00004 21 2.00004H3Z" fill="#EFEFEF"/>
<path fill-rule="evenodd" clip-rule="evenodd" d="M3.5 20.5V3.50004H20.5V13.189C21.0322 13.326 21.5357 13.5341 22 13.8027V3.00004C22 2.44775 21.5523 2.00004 21 2.00004H3C2.44772 2.00004 2 2.44775 2 3.00004V21C2 21.5523 2.44772 22 3 22H13.8027C13.5341 21.5358 13.326 21.0322 13.189 20.5H3.5Z" fill="#CFCFCF"/>
<path fill-rule="evenodd" clip-rule="evenodd" d="M12.15 3.99997C11.791 3.99997 11.5 4.29098 11.5 4.64997V13.9985C10.836 13.6895 9.83363 13.35 8.5002 13.35C7.57552 13.35 6.73514 13.9126 6.3433 14.2359C6.12247 14.4181 5.97287 14.6834 5.97169 14.9956C5.97058 15.2881 6.09976 15.5315 6.24783 15.7041L8.8814 18.7743C9.45782 19.4462 10.4618 19.5435 11.1566 18.9947L11.7832 18.4997C11.9104 18.3993 12.0899 18.3993 12.2171 18.4997L12.8508 19.0004C12.8994 19.0388 12.9495 19.0741 13.0009 19.1062C13.0003 19.0708 13 19.0355 13 19C13 18.5153 13.0575 18.044 13.166 17.5926L13.023 17.4797C12.4234 17.006 11.577 17.0059 10.9774 17.4796L10.3507 17.9746C10.2034 18.091 9.99038 18.0704 9.86811 17.9279L7.409 15.0611C7.72904 14.8452 8.14065 14.65 8.5002 14.65C9.69209 14.65 10.5485 14.9756 11.0787 15.2382C11.2168 15.3066 11.3584 15.3548 11.5009 15.3854C11.5193 15.7279 11.8029 16 12.15 16C12.509 16 12.8 15.709 12.8 15.35V15.2267C12.8323 15.212 12.864 15.1966 12.8952 15.1806C13.2659 14.9903 13.8955 14.7545 14.8399 14.6764C15.3197 14.2147 15.8761 13.832 16.4883 13.5495C16.1812 13.43 15.8446 13.35 15.5 13.35C14.323 13.35 13.4358 13.5573 12.8 13.8019V12.2211L12.8721 12.2339C13.18 12.288 13.604 12.3533 14.0634 12.397C14.5196 12.4405 15.0285 12.4645 15.5011 12.4294C15.9525 12.396 16.4669 12.3033 16.8606 12.0408C17.1602 11.841 17.4545 11.5409 17.6532 11.3224C17.7577 11.2076 17.8462 11.1034 17.9089 11.0279C17.9403 10.9899 17.9655 10.9589 17.9831 10.9368L18.004 10.9107L18.0099 10.9031L18.0117 10.9008L18.0123 10.9L18.0126 10.8997L18.0126 10.8996C18.0127 10.8995 18.0127 10.8995 17.5 10.5L18.0127 10.8995C18.2334 10.6163 18.1827 10.2079 17.8995 9.98724C17.6164 9.76662 17.208 9.81728 16.9873 10.1004L16.9873 10.1005L16.987 10.1008L16.9837 10.105L16.9686 10.1239C16.9549 10.141 16.9343 10.1665 16.9079 10.1984C16.8548 10.2625 16.7795 10.3509 16.6915 10.4477C16.505 10.6527 16.2993 10.8526 16.1394 10.9591C16.0331 11.03 15.7975 11.1039 15.4051 11.133C15.034 11.1605 14.6054 11.1428 14.1866 11.1029C13.771 11.0633 13.3825 11.0036 13.0967 10.9535C12.977 10.9325 12.8762 10.9133 12.8 10.8983V4.64997C12.8 4.29098 12.509 3.99997 12.15 3.99997Z" fill="#CFCFCF"/>
<path d="M12.5 6.49997C12.5 6.49997 14.0735 6.80874 14.9995 6.49995C15.4136 6.36186 15.9995 5.99997 15.9995 5.99997" stroke="#CFCFCF" stroke-width="1.3" stroke-linecap="round"/>
<path d="M12.5 8.99997C12.5 8.99997 15.5 9.66663 16.5 8.99997C16.9595 8.69362 17.5 7.99997 17.5 7.99997" stroke="#CFCFCF" stroke-width="1.3" stroke-linecap="round"/>
<path d="M11.5 8.99997C11.5 8.99997 8.5 9.66663 7.5 8.99997C7.04047 8.69362 6.5 7.99997 6.5 7.99997" stroke="#CFCFCF" stroke-width="1.3" stroke-linecap="round"/>
<path d="M11.5 11.5C11.5 11.5 8.5 12.1666 7.5 11.5C7.04047 11.1936 6.5 10.5 6.5 10.5" stroke="#CFCFCF" stroke-width="1.3" stroke-linecap="round"/>
<path d="M11.5 6.49997C11.5 6.49997 9.92651 6.80874 9.00054 6.49995C8.58645 6.36186 8.00049 5.99997 8.00049 5.99997" stroke="#CFCFCF" stroke-width="1.3" stroke-linecap="round"/>
<path d="M19.0007 22C20.6576 22 22.0007 20.6569 22.0007 19C22.0007 17.4104 20.7643 16.1095 19.2007 16.0066C19.0905 15.9993 19.0007 16.0888 19.0007 16.1993L19.0007 18.8786C19.0007 18.9531 18.9593 19.0216 18.8932 19.0561L16.5175 20.2947C16.4195 20.3458 16.3809 20.4671 16.4386 20.5614C16.9654 21.4241 17.9158 22 19.0007 22Z" fill="#1F90FF"/>
<path fill-rule="evenodd" clip-rule="evenodd" d="M24 19C24 21.7614 21.7614 24 19 24C16.2386 24 14 21.7614 14 19C14 16.2386 16.2386 14 19 14C21.7614 14 24 16.2386 24 19ZM23 19C23 21.2091 21.2091 23 19 23C16.7909 23 15 21.2091 15 19C15 16.7909 16.7909 15 19 15C21.2091 15 23 16.7909 23 19Z" fill="#1F90FF"/>
</g>
<defs>
<clipPath id="clip0_11278_101062">
<rect width="24" height="24" fill="white"/>
</clipPath>
</defs>
</svg>
