<svg width="24" height="24" viewBox="0 0 24 24" fill="none" xmlns="http://www.w3.org/2000/svg">
<mask id="path-1-inside-1_781_77928" fill="white">
<rect x="2" y="2.00003" width="20" height="20" rx="1"/>
</mask>
<rect x="2" y="2.00003" width="20" height="20" rx="1" fill="#757575" stroke="#CCCCCC" stroke-width="3" mask="url(#path-1-inside-1_781_77928)"/>
<path fill-rule="evenodd" clip-rule="evenodd" d="M12.15 3.99995C11.791 3.99995 11.5 4.29097 11.5 4.64995V13.9985C10.836 13.6895 9.83363 13.35 8.5002 13.35C7.57552 13.35 6.73514 13.9125 6.3433 14.2358C6.12247 14.418 5.97287 14.6834 5.97169 14.9956C5.97058 15.2881 6.09976 15.5315 6.24783 15.7041L8.8814 18.7742C9.45782 19.4462 10.4618 19.5435 11.1566 18.9947L11.7832 18.4997C11.9104 18.3992 12.0899 18.3992 12.2171 18.4997L12.8508 19.0004C13.5406 19.5454 14.5366 19.4539 15.1155 18.7923L17.5471 16.0133C17.7677 15.7612 17.9154 15.4312 17.919 15.077C17.9228 14.7062 17.7652 14.3376 17.432 14.0831C16.9815 13.7392 16.2601 13.35 15.5 13.35C14.323 13.35 13.4358 13.5573 12.8 13.8019V4.64995C12.8 4.29097 12.509 3.99995 12.15 3.99995ZM11.5009 15.3853C11.5193 15.7279 11.8029 16 12.15 16C12.509 16 12.8 15.7089 12.8 15.35V15.2267C12.8323 15.212 12.864 15.1966 12.8952 15.1806C13.3464 14.949 14.1811 14.65 15.5 14.65C15.8436 14.65 16.2724 14.8419 16.6108 15.0921C16.6032 15.1102 16.5899 15.1331 16.5688 15.1572L14.1371 17.9362C14.0143 18.0765 13.8031 18.096 13.6567 17.9804L13.023 17.4797C12.4234 17.006 11.577 17.0059 10.9774 17.4796L10.3507 17.9746C10.2034 18.091 9.99038 18.0704 9.86811 17.9278L7.409 15.0611C7.72904 14.8452 8.14065 14.65 8.5002 14.65C9.69209 14.65 10.5485 14.9756 11.0787 15.2382C11.2168 15.3066 11.3584 15.3548 11.5009 15.3853Z" fill="#E0E0E0"/>
<path d="M12.5 6.49995C12.5 6.49995 14.0735 6.80872 14.9995 6.49993C15.4136 6.36184 15.9995 5.99995 15.9995 5.99995" stroke="#E0E0E0" stroke-width="1.3" stroke-linecap="round"/>
<path d="M12.5 8.99995C12.5 8.99995 15.5 9.66662 16.5 8.99995C16.9595 8.6936 17.5 7.99995 17.5 7.99995" stroke="#E0E0E0" stroke-width="1.3" stroke-linecap="round"/>
<path d="M11.5 8.99995C11.5 8.99995 8.5 9.66662 7.5 8.99995C7.04047 8.6936 6.5 7.99995 6.5 7.99995" stroke="#E0E0E0" stroke-width="1.3" stroke-linecap="round"/>
<path d="M12.5 11.5C12.5 11.5 15.5 12.1666 16.5 11.5C16.9595 11.1936 17.5 10.5 17.5 10.5" stroke="#E0E0E0" stroke-width="1.3" stroke-linecap="round"/>
<path d="M11.5 11.5C11.5 11.5 8.5 12.1666 7.5 11.5C7.04047 11.1936 6.5 10.5 6.5 10.5" stroke="#E0E0E0" stroke-width="1.3" stroke-linecap="round"/>
<path d="M11.5 6.49995C11.5 6.49995 9.92651 6.80872 9.00054 6.49993C8.58645 6.36184 8.00049 5.99995 8.00049 5.99995" stroke="#E0E0E0" stroke-width="1.3" stroke-linecap="round"/>
</svg>
