<svg width="24" height="24" viewBox="0 0 24 24" fill="none" xmlns="http://www.w3.org/2000/svg">
<path fill-rule="evenodd" clip-rule="evenodd" d="M11.525 5.01748C11.525 4.67645 11.8015 4.39998 12.1425 4.39998C12.4835 4.39998 12.76 4.67645 12.76 5.01748V6.28662L12.8003 6.29273C12.9449 6.31427 13.1462 6.34007 13.3724 6.35722C13.8458 6.39311 14.3489 6.38397 14.6821 6.27287C14.8323 6.22278 15.0359 6.12293 15.2193 6.02323C15.3072 5.9755 15.3838 5.93146 15.4383 5.89944C15.4654 5.88348 15.4869 5.87063 15.5012 5.86196L15.5172 5.85225L15.5215 5.84963C15.7702 5.69608 16.0963 5.77319 16.2499 6.02188C16.4035 6.27058 16.3264 6.59672 16.0777 6.75032L16.075 6.75196L16.0692 6.75553L16.0485 6.76809C16.0309 6.77873 16.0058 6.79377 15.9746 6.81209C15.9124 6.84863 15.8253 6.89873 15.7248 6.95334C15.5316 7.05834 15.2601 7.19598 15.017 7.27708C14.4704 7.45932 13.7863 7.4502 13.2924 7.41276C13.0911 7.3975 12.9082 7.37633 12.76 7.35621V8.66828C12.8307 8.68215 12.921 8.6992 13.0267 8.71774C13.2996 8.76563 13.6712 8.82272 14.069 8.8606C14.4694 8.89873 14.882 8.91598 15.2414 8.88935C15.6182 8.86144 15.8609 8.78994 15.9814 8.70961C16.1428 8.60204 16.3442 8.40537 16.5222 8.20973C16.607 8.11653 16.6794 8.03144 16.7304 7.96982C16.7559 7.93911 16.7758 7.91449 16.7891 7.89794L16.8038 7.87947L16.8071 7.87527L16.8077 7.87449C16.9874 7.64408 17.3198 7.60288 17.5503 7.78249C17.7809 7.96216 17.8222 8.29473 17.6425 8.52532L17.6417 8.52645L17.64 8.52854L17.6346 8.53548L17.6152 8.55984C17.5987 8.58045 17.5751 8.6096 17.5455 8.64521C17.4867 8.71624 17.4034 8.81408 17.3053 8.922C17.1174 9.1286 16.8438 9.40693 16.5686 9.5904C16.2141 9.82673 15.7444 9.91357 15.3196 9.94503C14.8775 9.97778 14.3995 9.95544 13.9686 9.9144C13.5352 9.87312 13.1348 9.81146 12.8437 9.76039L12.76 9.74546V11.0433C12.8307 11.0571 12.921 11.0742 13.0267 11.0927C13.2996 11.1406 13.6712 11.1977 14.069 11.2356C14.4694 11.2737 14.882 11.291 15.2414 11.2643C15.6182 11.2364 15.8609 11.1649 15.9814 11.0846C16.1428 10.977 16.3442 10.7804 16.5222 10.5847C16.607 10.4915 16.6794 10.4064 16.7304 10.3448C16.7559 10.3141 16.7758 10.2895 16.7891 10.2729L16.8038 10.2545L16.8071 10.2503L16.8076 10.2495C16.9873 10.0191 17.3198 9.97786 17.5503 10.1575C17.7809 10.3372 17.8222 10.6697 17.6425 10.9003L17.6417 10.9014L17.64 10.9035L17.6346 10.9105L17.6152 10.9348C17.5987 10.9554 17.5751 10.9846 17.5455 11.0202C17.4867 11.0912 17.4034 11.1891 17.3053 11.297C17.1174 11.5036 16.8438 11.7819 16.5686 11.9654C16.2141 12.2017 15.7444 12.2886 15.3196 12.32C14.8775 12.3528 14.3995 12.3304 13.9686 12.2894C13.5352 12.2481 13.1348 12.1864 12.8437 12.1354L12.76 12.1205V13.8065C13.3555 13.5728 14.1975 13.3707 15.325 13.3707C16.0625 13.3707 16.7709 13.7734 17.1915 14.1159C17.7581 14.5772 17.6053 15.2952 17.2634 15.686L14.8083 18.4917C14.3369 19.0305 13.5259 19.105 12.9642 18.6612L12.1768 18.0391C12.0733 17.9573 11.9271 17.9573 11.8235 18.0391L11.0418 18.6566C10.4761 19.1035 9.65851 19.0242 9.18914 18.477L6.56968 15.4234C6.44916 15.2828 6.34485 15.0861 6.34386 14.8499C6.3428 14.5983 6.45975 14.3815 6.63705 14.2301C6.8293 14.0659 7.11816 13.8569 7.46033 13.6866C7.79906 13.518 8.22317 13.3707 8.67518 13.3707C9.95216 13.3707 10.9042 13.7024 11.525 13.996V12.0658L11.5053 12.0698C11.4217 12.0867 11.3023 12.1098 11.1563 12.1354C10.8653 12.1865 10.4649 12.2481 10.0315 12.2894C9.60061 12.3304 9.12261 12.3528 8.68047 12.32C8.25572 12.2886 7.78594 12.2017 7.43144 11.9654C7.15625 11.7819 6.8827 11.5036 6.69478 11.297C6.59662 11.1891 6.51338 11.0912 6.45453 11.0202C6.42502 10.9846 6.40141 10.9555 6.38489 10.9348L6.36551 10.9105L6.36004 10.9035L6.35787 10.9008C6.17821 10.6702 6.21914 10.3372 6.44972 10.1575C6.68025 9.97787 7.01285 10.0193 7.19255 10.2497L7.19631 10.2545L7.21101 10.2729C7.22427 10.2895 7.2442 10.3141 7.26964 10.3448C7.3207 10.4064 7.39311 10.4915 7.47788 10.5847C7.65582 10.7804 7.85727 10.977 8.01863 11.0846C8.13913 11.1649 8.38186 11.2364 8.75867 11.2643C9.11809 11.291 9.53072 11.2737 9.93111 11.2356C10.3289 11.1977 10.7004 11.1406 10.9734 11.0927C11.1095 11.0689 11.2201 11.0474 11.2961 11.0321C11.3341 11.0245 11.3634 11.0184 11.3828 11.0142L11.4044 11.0096L11.4102 11.0083C11.4487 10.9998 11.4871 10.9957 11.525 10.9956V9.69083L11.5052 9.69483C11.4216 9.71168 11.3022 9.73479 11.1563 9.76039C10.8652 9.81146 10.4648 9.87312 10.0314 9.9144C9.60052 9.95544 9.12252 9.97778 8.68039 9.94503C8.25563 9.91357 7.78586 9.82673 7.43136 9.5904C7.15617 9.40693 6.88262 9.1286 6.6947 8.922C6.59654 8.81408 6.5133 8.71624 6.45445 8.64521C6.42493 8.6096 6.40133 8.58045 6.38481 8.55984L6.36543 8.53548L6.35996 8.52854L6.35833 8.52645L6.35744 8.52532C6.17778 8.29473 6.21906 7.96216 6.44964 7.78249C6.68016 7.60288 7.01261 7.64408 7.19231 7.87449L7.19292 7.87527L7.19622 7.87947L7.21093 7.89794C7.22419 7.91449 7.24411 7.93911 7.26956 7.96982C7.32062 8.03144 7.39302 8.11653 7.4778 8.20973C7.65574 8.40537 7.85719 8.60204 8.01855 8.70961C8.13905 8.78994 8.38178 8.86144 8.75859 8.88935C9.11801 8.91598 9.53064 8.89873 9.93102 8.8606C10.3288 8.82272 10.7004 8.76563 10.9733 8.71774C11.1094 8.69387 11.2201 8.67245 11.2961 8.65713C11.334 8.64947 11.3633 8.64335 11.3827 8.63923L11.4043 8.6346L11.4092 8.63352L11.4103 8.63329C11.4487 8.62475 11.4872 8.62064 11.525 8.6206V7.31277C11.4809 7.3203 11.4237 7.32964 11.3557 7.33976C11.1925 7.36406 10.9652 7.39324 10.7077 7.41276C10.2138 7.4502 9.52962 7.45932 8.98311 7.27708C8.73994 7.19598 8.4685 7.05834 8.27529 6.95335C8.17479 6.89873 8.08765 6.84863 8.02547 6.81209C7.9943 6.79377 7.96919 6.77874 7.95157 6.76809L7.93088 6.75553L7.92504 6.75196L7.92254 6.75042C7.67383 6.59682 7.59658 6.27058 7.75018 6.02188C7.90375 5.77322 8.22985 5.69613 8.47854 5.84961L8.48283 5.85225L8.49882 5.86196C8.51318 5.87063 8.53463 5.88348 8.5618 5.89944C8.61628 5.93146 8.69289 5.9755 8.78073 6.02323C8.9642 6.12293 9.16779 6.22278 9.31799 6.27287C9.65116 6.38397 10.1542 6.39311 10.6277 6.35722C10.8538 6.34007 11.0552 6.31427 11.1998 6.29273C11.2718 6.282 11.3293 6.27241 11.3679 6.26565C11.3872 6.26227 11.4019 6.25961 11.4112 6.25786L11.4213 6.25597L11.4231 6.25562C11.4573 6.24891 11.4914 6.24567 11.525 6.24564V5.01748ZM11.525 15.1825V15.1467C11.4301 15.121 11.3361 15.0851 11.2441 15.0378C10.7387 14.7776 9.88535 14.4293 8.67518 14.4293C8.44525 14.4293 8.18743 14.5071 7.93206 14.6343C7.77333 14.7133 7.62831 14.805 7.50815 14.8915L9.9926 17.7878C10.0922 17.9039 10.2656 17.9207 10.3856 17.8259L11.1673 17.2084C11.6556 16.8227 12.3448 16.8227 12.8331 17.2085L13.6205 17.8306C13.7396 17.9247 13.9117 17.9089 14.0117 17.7947L16.4667 14.9889C16.4846 14.9684 16.496 14.9488 16.5026 14.9329L16.5048 14.9273L16.5062 14.9231C16.1757 14.6589 15.7092 14.4293 15.325 14.4293C14.0096 14.4293 13.1897 14.7391 12.76 14.9694V15.1825C12.76 15.5235 12.4835 15.8 12.1425 15.8C11.8015 15.8 11.525 15.5235 11.525 15.1825Z" fill="black"/>
<path fill-rule="evenodd" clip-rule="evenodd" d="M2.5 3.31429C2.5 2.86457 2.86457 2.5 3.31429 2.5H20.6857C21.1354 2.5 21.5 2.86457 21.5 3.31429V20.6857C21.5 21.1354 21.1354 21.5 20.6857 21.5H3.31429C2.86457 21.5 2.5 21.1354 2.5 20.6857V3.31429ZM3.72143 20.2786V3.72143H20.2786V20.2786H3.72143Z" fill="black"/>
</svg>
