<svg width="156" height="156" viewBox="0 0 156 156" fill="none" xmlns="http://www.w3.org/2000/svg">
<path fill-rule="evenodd" clip-rule="evenodd" d="M116.786 39.2141C107.953 33.3898 97.3721 30 86 30C55.0721 30 30 55.0721 30 86C30 97.3721 33.3898 107.953 39.2141 116.786C24.024 106.77 14 89.5558 14 70C14 39.0721 39.0721 14 70 14C89.5558 14 106.77 24.024 116.786 39.2141Z" fill="url(#paint0_linear_850_291099)"/>
<mask id="mask0_850_291099" style="mask-type:alpha" maskUnits="userSpaceOnUse" x="30" y="30" width="112" height="112">
<circle cx="86" cy="86" r="56" fill="#E6F1FF"/>
</mask>
<g mask="url(#mask0_850_291099)">
<g filter="url(#filter0_f_850_291099)">
<circle cx="70" cy="70" r="56" fill="url(#paint1_linear_850_291099)"/>
</g>
</g>
<g filter="url(#filter1_di_850_291099)">
<circle cx="86" cy="86" r="56" fill="#E6F1FF" fill-opacity="0.2" shape-rendering="crispEdges"/>
</g>
<g filter="url(#filter2_dd_850_291099)">
<rect x="63.5" y="65.5" width="45" height="45" rx="4" stroke="white" stroke-width="3.5" stroke-linecap="round" stroke-dasharray="6 6"/>
<path d="M71.375 65.5H67.5C65.2909 65.5 63.5 67.2909 63.5 69.5V73.375" stroke="white" stroke-width="3.5" stroke-linecap="round"/>
<path d="M100.625 65.5H104.5C106.709 65.5 108.5 67.2909 108.5 69.5V73.375" stroke="white" stroke-width="3.5" stroke-linecap="round"/>
<path d="M71.375 110.5H67.5C65.2909 110.5 63.5 108.709 63.5 106.5V102.625" stroke="white" stroke-width="3.5" stroke-linecap="round"/>
<path d="M100.625 110.5H104.5C106.709 110.5 108.5 108.709 108.5 106.5V102.625" stroke="white" stroke-width="3.5" stroke-linecap="round"/>
<path fill-rule="evenodd" clip-rule="evenodd" d="M88 79.25C87.0335 79.25 86.25 80.0335 86.25 81C86.25 81.9665 87.0335 82.75 88 82.75H92.7751L85.5 90.0251L82.7374 87.2626C82.054 86.5791 80.946 86.5791 80.2626 87.2626L73.7626 93.7626C73.0791 94.446 73.0791 95.554 73.7626 96.2374C74.446 96.9209 75.554 96.9209 76.2374 96.2374L81.5 90.9749L84.2626 93.7374C84.946 94.4209 86.054 94.4209 86.7374 93.7374L95.25 85.2249V90C95.25 90.9665 96.0335 91.75 97 91.75C97.9665 91.75 98.75 90.9665 98.75 90V81C98.75 80.0335 97.9665 79.25 97 79.25H88Z" fill="white"/>
</g>
<defs>
<filter id="filter0_f_850_291099" x="-6" y="-6" width="152" height="152" filterUnits="userSpaceOnUse" color-interpolation-filters="sRGB">
<feFlood flood-opacity="0" result="BackgroundImageFix"/>
<feBlend mode="normal" in="SourceGraphic" in2="BackgroundImageFix" result="shape"/>
<feGaussianBlur stdDeviation="10" result="effect1_foregroundBlur_850_291099"/>
</filter>
<filter id="filter1_di_850_291099" x="22" y="26" width="128" height="128" filterUnits="userSpaceOnUse" color-interpolation-filters="sRGB">
<feFlood flood-opacity="0" result="BackgroundImageFix"/>
<feColorMatrix in="SourceAlpha" type="matrix" values="0 0 0 0 0 0 0 0 0 0 0 0 0 0 0 0 0 0 127 0" result="hardAlpha"/>
<feOffset dy="4"/>
<feGaussianBlur stdDeviation="4"/>
<feComposite in2="hardAlpha" operator="out"/>
<feColorMatrix type="matrix" values="0 0 0 0 0.301961 0 0 0 0 0.556863 0 0 0 0 0.862745 0 0 0 0.3 0"/>
<feBlend mode="multiply" in2="BackgroundImageFix" result="effect1_dropShadow_850_291099"/>
<feBlend mode="normal" in="SourceGraphic" in2="effect1_dropShadow_850_291099" result="shape"/>
<feColorMatrix in="SourceAlpha" type="matrix" values="0 0 0 0 0 0 0 0 0 0 0 0 0 0 0 0 0 0 127 0" result="hardAlpha"/>
<feOffset dx="1" dy="1"/>
<feGaussianBlur stdDeviation="0.5"/>
<feComposite in2="hardAlpha" operator="arithmetic" k2="-1" k3="1"/>
<feColorMatrix type="matrix" values="0 0 0 0 1 0 0 0 0 1 0 0 0 0 1 0 0 0 0.25 0"/>
<feBlend mode="normal" in2="shape" result="effect2_innerShadow_850_291099"/>
</filter>
<filter id="filter2_dd_850_291099" x="28" y="34" width="116" height="116" filterUnits="userSpaceOnUse" color-interpolation-filters="sRGB">
<feFlood flood-opacity="0" result="BackgroundImageFix"/>
<feColorMatrix in="SourceAlpha" type="matrix" values="0 0 0 0 0 0 0 0 0 0 0 0 0 0 0 0 0 0 127 0" result="hardAlpha"/>
<feOffset dy="4"/>
<feGaussianBlur stdDeviation="15"/>
<feColorMatrix type="matrix" values="0 0 0 0 0.615686 0 0 0 0 0.803922 0 0 0 0 0.960784 0 0 0 0.2 0"/>
<feBlend mode="multiply" in2="BackgroundImageFix" result="effect1_dropShadow_850_291099"/>
<feColorMatrix in="SourceAlpha" type="matrix" values="0 0 0 0 0 0 0 0 0 0 0 0 0 0 0 0 0 0 127 0" result="hardAlpha"/>
<feOffset dy="4"/>
<feGaussianBlur stdDeviation="8"/>
<feColorMatrix type="matrix" values="0 0 0 0 0.258824 0 0 0 0 0.258824 0 0 0 0 0.258824 0 0 0 0.2 0"/>
<feBlend mode="multiply" in2="effect1_dropShadow_850_291099" result="effect2_dropShadow_850_291099"/>
<feBlend mode="normal" in="SourceGraphic" in2="effect2_dropShadow_850_291099" result="shape"/>
</filter>
<linearGradient id="paint0_linear_850_291099" x1="-11.8649" y1="27.0321" x2="75.9235" y2="103.885" gradientUnits="userSpaceOnUse">
<stop stop-color="#418FDE"/>
<stop offset="1" stop-color="#77C5D5"/>
</linearGradient>
<linearGradient id="paint1_linear_850_291099" x1="-14.1835" y1="28.2003" x2="81.4745" y2="111.943" gradientUnits="userSpaceOnUse">
<stop stop-color="#418FDE"/>
<stop offset="1" stop-color="#77C5D5"/>
</linearGradient>
</defs>
</svg>
